<?xml version="1.0" encoding="UTF-8" standalone="no"?><svg xmlns="http://www.w3.org/2000/svg" xmlns:xlink="http://www.w3.org/1999/xlink" contentStyleType="text/css" height="634px" preserveAspectRatio="none" style="width:397px;height:634px;background:#FFFFFF;" version="1.1" viewBox="0 0 397 634" width="397px" zoomAndPan="magnify"><defs/><g><text fill="#000000" font-family="sans-serif" font-size="14" font-weight="bold" lengthAdjust="spacing" textLength="222" x="91.25" y="28.5352">Email Expiry Behavior (current)</text><line style="stroke:#181818;stroke-width:0.5;stroke-dasharray:5.0,5.0;" x1="41.5" x2="41.5" y1="118.9766" y2="552.7031"/><line style="stroke:#181818;stroke-width:0.5;stroke-dasharray:5.0,5.0;" x1="249.5" x2="249.5" y1="118.9766" y2="552.7031"/><text fill="#000000" font-family="sans-serif" font-size="14" lengthAdjust="spacing" textLength="67" x="5" y="116.0234">Customer</text><ellipse cx="41.5" cy="50.9883" fill="#E2E2F0" rx="8" ry="8" style="stroke:#181818;stroke-width:0.5;"/><path d="M41.5,58.9883 L41.5,85.9883 M28.5,66.9883 L54.5,66.9883 M41.5,85.9883 L28.5,100.9883 M41.5,85.9883 L54.5,100.9883 " fill="none" style="stroke:#181818;stroke-width:0.5;"/><rect fill="#E2E2F0" height="30.4883" rx="2.5" ry="2.5" style="stroke:#181818;stroke-width:0.5;" width="169" x="165" y="87.4883"/><text fill="#000000" font-family="sans-serif" font-size="14" lengthAdjust="spacing" textLength="155" x="172" y="108.0234">Account activation link</text><text fill="#000000" font-family="sans-serif" font-size="14" lengthAdjust="spacing" textLength="67" x="5" y="626.2383">Customer</text><ellipse cx="41.5" cy="561.2031" fill="#E2E2F0" rx="8" ry="8" style="stroke:#181818;stroke-width:0.5;"/><path d="M41.5,569.2031 L41.5,596.2031 M28.5,577.2031 L54.5,577.2031 M41.5,596.2031 L28.5,611.2031 M41.5,596.2031 L54.5,611.2031 " fill="none" style="stroke:#181818;stroke-width:0.5;"/><rect fill="#E2E2F0" height="30.4883" rx="2.5" ry="2.5" style="stroke:#181818;stroke-width:0.5;" width="169" x="165" y="552.7031"/><text fill="#000000" font-family="sans-serif" font-size="14" lengthAdjust="spacing" textLength="155" x="172" y="573.2383">Account activation link</text><path d="M25.5,130.9766 L287.5,130.9766 L287.5,138.2871 L277.5,148.2871 L25.5,148.2871 L25.5,130.9766 " fill="#EEEEEE" style="stroke:#000000;stroke-width:1.5;"/><rect fill="none" height="85.9316" style="stroke:#000000;stroke-width:1.5;" width="278" x="25.5" y="130.9766"/><text fill="#000000" font-family="sans-serif" font-size="13" font-weight="bold" lengthAdjust="spacing" textLength="217" x="40.5" y="144.5449">email &lt;  7d old, invite &lt; 60d old</text><polygon fill="#181818" points="237.5,175.5977,247.5,179.5977,237.5,183.5977,241.5,179.5977" style="stroke:#181818;stroke-width:1.0;"/><line style="stroke:#181818;stroke-width:1.0;" x1="41.5" x2="243.5" y1="179.5977" y2="179.5977"/><text fill="#000000" font-family="sans-serif" font-size="13" lengthAdjust="spacing" textLength="60" x="48.5" y="174.8555">Click link</text><polygon fill="#181818" points="52.5,204.9082,42.5,208.9082,52.5,212.9082,48.5,208.9082" style="stroke:#181818;stroke-width:1.0;"/><line style="stroke:#181818;stroke-width:1.0;" x1="46.5" x2="248.5" y1="208.9082" y2="208.9082"/><text fill="#000000" font-family="sans-serif" font-size="13" lengthAdjust="spacing" textLength="184" x="58.5" y="204.166">Return account creation page</text><path d="M25.5,234.9082 L283.5,234.9082 L283.5,242.2188 L273.5,252.2188 L25.5,252.2188 L25.5,234.9082 " fill="#EEEEEE" style="stroke:#000000;stroke-width:1.5;"/><rect fill="none" height="85.9316" style="stroke:#000000;stroke-width:1.5;" width="274" x="25.5" y="234.9082"/><text fill="#000000" font-family="sans-serif" font-size="13" font-weight="bold" lengthAdjust="spacing" textLength="213" x="40.5" y="248.4766">email &gt; 7d old, invite &lt; 60d old</text><polygon fill="#181818" points="237.5,279.5293,247.5,283.5293,237.5,287.5293,241.5,283.5293" style="stroke:#181818;stroke-width:1.0;"/><line style="stroke:#181818;stroke-width:1.0;" x1="41.5" x2="243.5" y1="283.5293" y2="283.5293"/><text fill="#000000" font-family="sans-serif" font-size="13" lengthAdjust="spacing" textLength="60" x="48.5" y="278.7871">Click link</text><polygon fill="#181818" points="52.5,308.8398,42.5,312.8398,52.5,316.8398,48.5,312.8398" style="stroke:#181818;stroke-width:1.0;"/><line style="stroke:#181818;stroke-width:1.0;" x1="46.5" x2="248.5" y1="312.8398" y2="312.8398"/><text fill="#000000" font-family="sans-serif" font-size="13" lengthAdjust="spacing" textLength="102" x="58.5" y="308.0977">Email a new link</text><path d="M25.5,338.8398 L283.5,338.8398 L283.5,346.1504 L273.5,356.1504 L25.5,356.1504 L25.5,338.8398 " fill="#EEEEEE" style="stroke:#000000;stroke-width:1.5;"/><rect fill="none" height="85.9316" style="stroke:#000000;stroke-width:1.5;" width="274" x="25.5" y="338.8398"/><text fill="#000000" font-family="sans-serif" font-size="13" font-weight="bold" lengthAdjust="spacing" textLength="213" x="40.5" y="352.4082">email &gt; 7d old, invite &gt; 60d old</text><polygon fill="#181818" points="237.5,383.4609,247.5,387.4609,237.5,391.4609,241.5,387.4609" style="stroke:#181818;stroke-width:1.0;"/><line style="stroke:#181818;stroke-width:1.0;" x1="41.5" x2="243.5" y1="387.4609" y2="387.4609"/><text fill="#000000" font-family="sans-serif" font-size="13" lengthAdjust="spacing" textLength="60" x="48.5" y="382.7188">Click link</text><polygon fill="#181818" points="52.5,412.7715,42.5,416.7715,52.5,420.7715,48.5,416.7715" style="stroke:#181818;stroke-width:1.0;"/><line style="stroke:#181818;stroke-width:1.0;" x1="46.5" x2="248.5" y1="416.7715" y2="416.7715"/><text fill="#000000" font-family="sans-serif" font-size="13" lengthAdjust="spacing" textLength="182" x="58.5" y="412.0293">Invite expired (exact UX TBD)</text><path d="M25.5,442.7715 L375.5,442.7715 L375.5,450.082 L365.5,460.082 L25.5,460.082 L25.5,442.7715 " fill="#EEEEEE" style="stroke:#000000;stroke-width:1.5;"/><rect fill="none" height="85.9316" style="stroke:#000000;stroke-width:1.5;" width="366" x="25.5" y="442.7715"/><text fill="#000000" font-family="sans-serif" font-size="13" font-weight="bold" lengthAdjust="spacing" textLength="305" x="40.5" y="456.3398">email &lt; 7d old, invite &gt; 60d old (corner case)</text><polygon fill="#181818" points="237.5,487.3926,247.5,491.3926,237.5,495.3926,241.5,491.3926" style="stroke:#181818;stroke-width:1.0;"/><line style="stroke:#181818;stroke-width:1.0;" x1="41.5" x2="243.5" y1="491.3926" y2="491.3926"/><text fill="#000000" font-family="sans-serif" font-size="13" lengthAdjust="spacing" textLength="60" x="48.5" y="486.6504">Click link</text><polygon fill="#181818" points="52.5,516.7031,42.5,520.7031,52.5,524.7031,48.5,520.7031" style="stroke:#181818;stroke-width:1.0;"/><line style="stroke:#181818;stroke-width:1.0;" x1="46.5" x2="248.5" y1="520.7031" y2="520.7031"/><text fill="#000000" font-family="sans-serif" font-size="13" lengthAdjust="spacing" textLength="25" x="58.5" y="515.9609">TBD</text><!--SRC=[fT5DIyGm40RWy-PNlFQq2mgU59QbuAvxy2eANeTqg67R94mdjVhhJPkB7XPMl8HXFlA4oLKKQdk2SlY2Ic9Zr6d7EFRaEXodwEGJUtwdqGN1sYOHzhenXgpcH7L8WuQUfG8Di9E99EgiY-GLrOEr8UKWzxgHr0MFpldJqZi7nhGIKWGls0wuRn2wvXhEZquvP-vkbunPsGatzJAqnQ5pzbGkMCtdNB7J5i-iINpMYcg5YncfPSE-mQBzHkj_ccLF1CyVfNgfK__DUIfJF7y8DrZpb9UArpUyx1ytvz3TMJJ_P13F0ai3RovxGfP-GDy0]--></g></svg>