<?xml version="1.0" encoding="UTF-8" standalone="no"?><svg xmlns="http://www.w3.org/2000/svg" xmlns:xlink="http://www.w3.org/1999/xlink" contentStyleType="text/css" height="530px" preserveAspectRatio="none" style="width:541px;height:530px;background:#FFFFFF;" version="1.1" viewBox="0 0 541 530" width="541px" zoomAndPan="magnify"><defs/><g><text fill="#000000" font-family="sans-serif" font-size="14" font-weight="bold" lengthAdjust="spacing" textLength="222" x="158.5" y="28.5352">Email Expiry Behavior (current)</text><line style="stroke:#181818;stroke-width:0.5;stroke-dasharray:5.0,5.0;" x1="41.5" x2="41.5" y1="118.9766" y2="448.7715"/><line style="stroke:#181818;stroke-width:0.5;stroke-dasharray:5.0,5.0;" x1="450.5" x2="450.5" y1="118.9766" y2="448.7715"/><text fill="#000000" font-family="sans-serif" font-size="14" lengthAdjust="spacing" textLength="67" x="5" y="116.0234">Customer</text><ellipse cx="41.5" cy="50.9883" fill="#E2E2F0" rx="8" ry="8" style="stroke:#181818;stroke-width:0.5;"/><path d="M41.5,58.9883 L41.5,85.9883 M28.5,66.9883 L54.5,66.9883 M41.5,85.9883 L28.5,100.9883 M41.5,85.9883 L54.5,100.9883 " fill="none" style="stroke:#181818;stroke-width:0.5;"/><rect fill="#E2E2F0" height="30.4883" rx="2.5" ry="2.5" style="stroke:#181818;stroke-width:0.5;" width="169" x="366" y="87.4883"/><text fill="#000000" font-family="sans-serif" font-size="14" lengthAdjust="spacing" textLength="155" x="373" y="108.0234">Account activation link</text><text fill="#000000" font-family="sans-serif" font-size="14" lengthAdjust="spacing" textLength="67" x="5" y="522.3066">Customer</text><ellipse cx="41.5" cy="457.2715" fill="#E2E2F0" rx="8" ry="8" style="stroke:#181818;stroke-width:0.5;"/><path d="M41.5,465.2715 L41.5,492.2715 M28.5,473.2715 L54.5,473.2715 M41.5,492.2715 L28.5,507.2715 M41.5,492.2715 L54.5,507.2715 " fill="none" style="stroke:#181818;stroke-width:0.5;"/><rect fill="#E2E2F0" height="30.4883" rx="2.5" ry="2.5" style="stroke:#181818;stroke-width:0.5;" width="169" x="366" y="448.7715"/><text fill="#000000" font-family="sans-serif" font-size="14" lengthAdjust="spacing" textLength="155" x="373" y="469.3066">Account activation link</text><path d="M25.5,130.9766 L287.5,130.9766 L287.5,138.2871 L277.5,148.2871 L25.5,148.2871 L25.5,130.9766 " fill="#EEEEEE" style="stroke:#000000;stroke-width:1.5;"/><rect fill="none" height="85.9316" style="stroke:#000000;stroke-width:1.5;" width="441" x="25.5" y="130.9766"/><text fill="#000000" font-family="sans-serif" font-size="13" font-weight="bold" lengthAdjust="spacing" textLength="217" x="40.5" y="144.5449">email &lt;  7d old, invite &lt; 60d old</text><polygon fill="#181818" points="438.5,175.5977,448.5,179.5977,438.5,183.5977,442.5,179.5977" style="stroke:#181818;stroke-width:1.0;"/><line style="stroke:#181818;stroke-width:1.0;" x1="41.5" x2="444.5" y1="179.5977" y2="179.5977"/><text fill="#000000" font-family="sans-serif" font-size="13" lengthAdjust="spacing" textLength="60" x="48.5" y="174.8555">Click link</text><polygon fill="#181818" points="52.5,204.9082,42.5,208.9082,52.5,212.9082,48.5,208.9082" style="stroke:#181818;stroke-width:1.0;"/><line style="stroke:#181818;stroke-width:1.0;" x1="46.5" x2="449.5" y1="208.9082" y2="208.9082"/><text fill="#000000" font-family="sans-serif" font-size="13" lengthAdjust="spacing" textLength="187" x="58.5" y="204.166">Open account activation page</text><path d="M25.5,234.9082 L283.5,234.9082 L283.5,242.2188 L273.5,252.2188 L25.5,252.2188 L25.5,234.9082 " fill="#EEEEEE" style="stroke:#000000;stroke-width:1.5;"/><rect fill="none" height="85.9316" style="stroke:#000000;stroke-width:1.5;" width="441" x="25.5" y="234.9082"/><text fill="#000000" font-family="sans-serif" font-size="13" font-weight="bold" lengthAdjust="spacing" textLength="213" x="40.5" y="248.4766">email &gt; 7d old, invite &lt; 60d old</text><polygon fill="#181818" points="438.5,279.5293,448.5,283.5293,438.5,287.5293,442.5,283.5293" style="stroke:#181818;stroke-width:1.0;"/><line style="stroke:#181818;stroke-width:1.0;" x1="41.5" x2="444.5" y1="283.5293" y2="283.5293"/><text fill="#000000" font-family="sans-serif" font-size="13" lengthAdjust="spacing" textLength="60" x="48.5" y="278.7871">Click link</text><polygon fill="#181818" points="52.5,308.8398,42.5,312.8398,52.5,316.8398,48.5,312.8398" style="stroke:#181818;stroke-width:1.0;"/><line style="stroke:#181818;stroke-width:1.0;" x1="46.5" x2="449.5" y1="312.8398" y2="312.8398"/><text fill="#000000" font-family="sans-serif" font-size="13" lengthAdjust="spacing" textLength="385" x="58.5" y="308.0977">Display "New activation email sent" message, and send email</text><path d="M25.5,338.8398 L280.5,338.8398 L280.5,346.1504 L270.5,356.1504 L25.5,356.1504 L25.5,338.8398 " fill="#EEEEEE" style="stroke:#000000;stroke-width:1.5;"/><rect fill="none" height="85.9316" style="stroke:#000000;stroke-width:1.5;" width="441" x="25.5" y="338.8398"/><text fill="#000000" font-family="sans-serif" font-size="13" font-weight="bold" lengthAdjust="spacing" textLength="210" x="40.5" y="352.4082">email any age, invite &gt; 60d old</text><polygon fill="#181818" points="438.5,383.4609,448.5,387.4609,438.5,391.4609,442.5,387.4609" style="stroke:#181818;stroke-width:1.0;"/><line style="stroke:#181818;stroke-width:1.0;" x1="41.5" x2="444.5" y1="387.4609" y2="387.4609"/><text fill="#000000" font-family="sans-serif" font-size="13" lengthAdjust="spacing" textLength="60" x="48.5" y="382.7188">Click link</text><polygon fill="#181818" points="52.5,412.7715,42.5,416.7715,52.5,420.7715,48.5,416.7715" style="stroke:#181818;stroke-width:1.0;"/><line style="stroke:#181818;stroke-width:1.0;" x1="46.5" x2="449.5" y1="416.7715" y2="416.7715"/><text fill="#000000" font-family="sans-serif" font-size="13" lengthAdjust="spacing" textLength="206" x="58.5" y="412.0293">Display "Invite expired" message</text><!--SRC=[fP5DIyGm48RFcr_nsfF22fuK5Yciwnwyw6yOqg4EcoOX7xNrrvkc8YlYHIzXcA_dONBX0_K38R5xHmgPbKgI3ECua1WS9ozXnWE_qYWku5Bd4DYcAwL8fv9e3ZacDt1eG15wKfv24YsUR4Aprzhb4fHU6Ic9ip1YJxLt2PJgWyiUN67tm5q7Pxejn8wIk6HkRsf6RVI4wxOExN0mea_hWitoBXKzxV3YsHRM3wQddXNR3fNs7Th-a_aeqHkQqJppspbptHxBhHeC76DHs8AAGrn4QlKt9R8pQlkdKVj7ewTrd9S_vEvBumpx0G00]--></g></svg>