<?xml version="1.0" encoding="UTF-8" standalone="no"?><svg xmlns="http://www.w3.org/2000/svg" xmlns:xlink="http://www.w3.org/1999/xlink" contentStyleType="text/css" height="947px" preserveAspectRatio="none" style="width:1856px;height:947px;background:#FFFFFF;" version="1.1" viewBox="0 0 1856 947" width="1856px" zoomAndPan="magnify"><defs/><g><text fill="#000000" font-family="sans-serif" font-size="14" font-weight="bold" lengthAdjust="spacing" textLength="417" x="723.25" y="28.5352">Account Activation Sequence Diagram (current sales flow)</text><line style="stroke:#181818;stroke-width:0.5;stroke-dasharray:5.0,5.0;" x1="41.5" x2="41.5" y1="118.9766" y2="865.8086"/><line style="stroke:#181818;stroke-width:0.5;stroke-dasharray:5.0,5.0;" x1="157.5" x2="157.5" y1="118.9766" y2="865.8086"/><line style="stroke:#181818;stroke-width:0.5;stroke-dasharray:5.0,5.0;" x1="319.5" x2="319.5" y1="118.9766" y2="865.8086"/><line style="stroke:#181818;stroke-width:0.5;stroke-dasharray:5.0,5.0;" x1="481.5" x2="481.5" y1="118.9766" y2="865.8086"/><line style="stroke:#181818;stroke-width:0.5;stroke-dasharray:5.0,5.0;" x1="782.5" x2="782.5" y1="118.9766" y2="865.8086"/><line style="stroke:#181818;stroke-width:0.5;stroke-dasharray:5.0,5.0;" x1="1031.5" x2="1031.5" y1="118.9766" y2="865.8086"/><line style="stroke:#181818;stroke-width:0.5;stroke-dasharray:5.0,5.0;" x1="1258.5" x2="1258.5" y1="118.9766" y2="865.8086"/><line style="stroke:#181818;stroke-width:0.5;stroke-dasharray:5.0,5.0;" x1="1382" x2="1382" y1="118.9766" y2="865.8086"/><line style="stroke:#181818;stroke-width:0.5;stroke-dasharray:5.0,5.0;" x1="1477" x2="1477" y1="118.9766" y2="865.8086"/><line style="stroke:#181818;stroke-width:0.5;stroke-dasharray:5.0,5.0;" x1="1689" x2="1689" y1="118.9766" y2="865.8086"/><line style="stroke:#181818;stroke-width:0.5;stroke-dasharray:5.0,5.0;" x1="1809.5" x2="1809.5" y1="118.9766" y2="865.8086"/><text fill="#000000" font-family="sans-serif" font-size="14" lengthAdjust="spacing" textLength="67" x="5" y="116.0234">Customer</text><ellipse cx="41.5" cy="50.9883" fill="#E2E2F0" rx="8" ry="8" style="stroke:#181818;stroke-width:0.5;"/><path d="M41.5,58.9883 L41.5,85.9883 M28.5,66.9883 L54.5,66.9883 M41.5,85.9883 L28.5,100.9883 M41.5,85.9883 L54.5,100.9883 " fill="none" style="stroke:#181818;stroke-width:0.5;"/><rect fill="#E2E2F0" height="30.4883" rx="2.5" ry="2.5" style="stroke:#181818;stroke-width:0.5;" width="79" x="118" y="87.4883"/><text fill="#000000" font-family="sans-serif" font-size="14" lengthAdjust="spacing" textLength="65" x="125" y="108.0234">DocuSign</text><rect fill="#E2E2F0" height="30.4883" rx="2.5" ry="2.5" style="stroke:#181818;stroke-width:0.5;" width="84" x="277.5" y="87.4883"/><text fill="#000000" font-family="sans-serif" font-size="14" lengthAdjust="spacing" textLength="70" x="284.5" y="108.0234">Salesforce</text><rect fill="#E2E2F0" height="30.4883" rx="2.5" ry="2.5" style="stroke:#181818;stroke-width:0.5;" width="145" x="409" y="87.4883"/><text fill="#000000" font-family="sans-serif" font-size="14" lengthAdjust="spacing" textLength="131" x="416" y="108.0234">salesforce-sentinel</text><path d="M756.5,92.4883 L808.5,92.4883 C813.5,92.4883 813.5,105.7324 813.5,105.7324 C813.5,105.7324 813.5,118.9766 808.5,118.9766 L756.5,118.9766 C751.5,118.9766 751.5,105.7324 751.5,105.7324 C751.5,105.7324 751.5,92.4883 756.5,92.4883 " fill="#E2E2F0" style="stroke:#181818;stroke-width:0.5;"/><path d="M808.5,92.4883 C803.5,92.4883 803.5,105.7324 803.5,105.7324 C803.5,118.9766 808.5,118.9766 808.5,118.9766 " fill="none" style="stroke:#181818;stroke-width:0.5;"/><text fill="#000000" font-family="sans-serif" font-size="14" lengthAdjust="spacing" textLength="42" x="756.5" y="111.0234">Pulsar</text><rect fill="#E2E2F0" height="30.4883" rx="2.5" ry="2.5" style="stroke:#181818;stroke-width:0.5;" width="172" x="945.5" y="87.4883"/><text fill="#000000" font-family="sans-serif" font-size="14" lengthAdjust="spacing" textLength="158" x="952.5" y="108.0234">consumer-user-emails</text><rect fill="#E2E2F0" height="30.4883" rx="2.5" ry="2.5" style="stroke:#181818;stroke-width:0.5;" width="134" x="1191.5" y="87.4883"/><text fill="#000000" font-family="sans-serif" font-size="14" lengthAdjust="spacing" textLength="120" x="1198.5" y="108.0234">toast-restaurants</text><rect fill="#E2E2F0" height="30.4883" rx="2.5" ry="2.5" style="stroke:#181818;stroke-width:0.5;" width="93" x="1335.5" y="87.4883"/><text fill="#000000" font-family="sans-serif" font-size="14" lengthAdjust="spacing" textLength="79" x="1342.5" y="108.0234">toast-users</text><rect fill="#E2E2F0" height="30.4883" rx="2.5" ry="2.5" style="stroke:#181818;stroke-width:0.5;" width="77" x="1438.5" y="87.4883"/><text fill="#000000" font-family="sans-serif" font-size="14" lengthAdjust="spacing" textLength="63" x="1445.5" y="108.0234">SendGrid</text><rect fill="#E2E2F0" height="30.4883" rx="2.5" ry="2.5" style="stroke:#181818;stroke-width:0.5;" width="140" x="1619" y="87.4883"/><text fill="#000000" font-family="sans-serif" font-size="14" lengthAdjust="spacing" textLength="126" x="1626" y="108.0234">Customer Mailbox</text><rect fill="#E2E2F0" height="30.4883" rx="2.5" ry="2.5" style="stroke:#181818;stroke-width:0.5;" width="81" x="1769" y="87.4883"/><text fill="#000000" font-family="sans-serif" font-size="14" lengthAdjust="spacing" textLength="67" x="1776" y="108.0234">ToastWeb</text><text fill="#000000" font-family="sans-serif" font-size="14" lengthAdjust="spacing" textLength="67" x="5" y="939.3438">Customer</text><ellipse cx="41.5" cy="874.3086" fill="#E2E2F0" rx="8" ry="8" style="stroke:#181818;stroke-width:0.5;"/><path d="M41.5,882.3086 L41.5,909.3086 M28.5,890.3086 L54.5,890.3086 M41.5,909.3086 L28.5,924.3086 M41.5,909.3086 L54.5,924.3086 " fill="none" style="stroke:#181818;stroke-width:0.5;"/><rect fill="#E2E2F0" height="30.4883" rx="2.5" ry="2.5" style="stroke:#181818;stroke-width:0.5;" width="79" x="118" y="865.8086"/><text fill="#000000" font-family="sans-serif" font-size="14" lengthAdjust="spacing" textLength="65" x="125" y="886.3438">DocuSign</text><rect fill="#E2E2F0" height="30.4883" rx="2.5" ry="2.5" style="stroke:#181818;stroke-width:0.5;" width="84" x="277.5" y="865.8086"/><text fill="#000000" font-family="sans-serif" font-size="14" lengthAdjust="spacing" textLength="70" x="284.5" y="886.3438">Salesforce</text><rect fill="#E2E2F0" height="30.4883" rx="2.5" ry="2.5" style="stroke:#181818;stroke-width:0.5;" width="145" x="409" y="865.8086"/><text fill="#000000" font-family="sans-serif" font-size="14" lengthAdjust="spacing" textLength="131" x="416" y="886.3438">salesforce-sentinel</text><path d="M756.5,865.8086 L808.5,865.8086 C813.5,865.8086 813.5,879.0527 813.5,879.0527 C813.5,879.0527 813.5,892.2969 808.5,892.2969 L756.5,892.2969 C751.5,892.2969 751.5,879.0527 751.5,879.0527 C751.5,879.0527 751.5,865.8086 756.5,865.8086 " fill="#E2E2F0" style="stroke:#181818;stroke-width:0.5;"/><path d="M808.5,865.8086 C803.5,865.8086 803.5,879.0527 803.5,879.0527 C803.5,892.2969 808.5,892.2969 808.5,892.2969 " fill="none" style="stroke:#181818;stroke-width:0.5;"/><text fill="#000000" font-family="sans-serif" font-size="14" lengthAdjust="spacing" textLength="42" x="756.5" y="884.3438">Pulsar</text><rect fill="#E2E2F0" height="30.4883" rx="2.5" ry="2.5" style="stroke:#181818;stroke-width:0.5;" width="172" x="945.5" y="865.8086"/><text fill="#000000" font-family="sans-serif" font-size="14" lengthAdjust="spacing" textLength="158" x="952.5" y="886.3438">consumer-user-emails</text><rect fill="#E2E2F0" height="30.4883" rx="2.5" ry="2.5" style="stroke:#181818;stroke-width:0.5;" width="134" x="1191.5" y="865.8086"/><text fill="#000000" font-family="sans-serif" font-size="14" lengthAdjust="spacing" textLength="120" x="1198.5" y="886.3438">toast-restaurants</text><rect fill="#E2E2F0" height="30.4883" rx="2.5" ry="2.5" style="stroke:#181818;stroke-width:0.5;" width="93" x="1335.5" y="865.8086"/><text fill="#000000" font-family="sans-serif" font-size="14" lengthAdjust="spacing" textLength="79" x="1342.5" y="886.3438">toast-users</text><rect fill="#E2E2F0" height="30.4883" rx="2.5" ry="2.5" style="stroke:#181818;stroke-width:0.5;" width="77" x="1438.5" y="865.8086"/><text fill="#000000" font-family="sans-serif" font-size="14" lengthAdjust="spacing" textLength="63" x="1445.5" y="886.3438">SendGrid</text><rect fill="#E2E2F0" height="30.4883" rx="2.5" ry="2.5" style="stroke:#181818;stroke-width:0.5;" width="140" x="1619" y="865.8086"/><text fill="#000000" font-family="sans-serif" font-size="14" lengthAdjust="spacing" textLength="126" x="1626" y="886.3438">Customer Mailbox</text><rect fill="#E2E2F0" height="30.4883" rx="2.5" ry="2.5" style="stroke:#181818;stroke-width:0.5;" width="81" x="1769" y="865.8086"/><text fill="#000000" font-family="sans-serif" font-size="14" lengthAdjust="spacing" textLength="67" x="1776" y="886.3438">ToastWeb</text><line style="stroke:#181818;stroke-width:1.0;" x1="155.5" x2="145.5" y1="148.2871" y2="144.2871"/><line style="stroke:#181818;stroke-width:1.0;" x1="155.5" x2="145.5" y1="148.2871" y2="152.2871"/><line style="stroke:#181818;stroke-width:1.0;" x1="41.5" x2="156.5" y1="148.2871" y2="148.2871"/><text fill="#000000" font-family="sans-serif" font-size="13" lengthAdjust="spacing" textLength="92" x="48.5" y="143.5449">Complete TMA</text><path d="M141.5,160.2871 L394.5,160.2871 L394.5,167.5977 L384.5,177.5977 L141.5,177.5977 L141.5,160.2871 " fill="#EEEEEE" style="stroke:#000000;stroke-width:1.5;"/><rect fill="none" height="85.9316" style="stroke:#000000;stroke-width:1.5;" width="356" x="141.5" y="160.2871"/><text fill="#000000" font-family="sans-serif" font-size="13" font-weight="bold" lengthAdjust="spacing" textLength="208" x="156.5" y="173.8555">Stage automation (details TBD)</text><polygon fill="#181818" points="307.5,204.9082,317.5,208.9082,307.5,212.9082,311.5,208.9082" style="stroke:#181818;stroke-width:1.0;"/><line style="stroke:#181818;stroke-width:1.0;" x1="157.5" x2="313.5" y1="208.9082" y2="208.9082"/><text fill="#000000" font-family="sans-serif" font-size="13" lengthAdjust="spacing" textLength="138" x="164.5" y="204.166">Move Opp to Stage 11</text><polygon fill="#181818" points="469.5,234.2188,479.5,238.2188,469.5,242.2188,473.5,238.2188" style="stroke:#181818;stroke-width:1.0;"/><line style="stroke:#181818;stroke-width:1.0;" x1="319.5" x2="475.5" y1="238.2188" y2="238.2188"/><text fill="#000000" font-family="sans-serif" font-size="13" lengthAdjust="spacing" textLength="138" x="326.5" y="233.4766">Move Opp to Stage 11</text><path d="M446.5,264.2188 L673.5,264.2188 L673.5,271.5293 L663.5,281.5293 L446.5,281.5293 L446.5,264.2188 " fill="#EEEEEE" style="stroke:#000000;stroke-width:1.5;"/><rect fill="none" height="314.1055" style="stroke:#000000;stroke-width:1.5;" width="1404" x="446.5" y="264.2188"/><text fill="#000000" font-family="sans-serif" font-size="13" font-weight="bold" lengthAdjust="spacing" textLength="182" x="461.5" y="277.7871">Account activation prereqs</text><path d="M465.5,295.5293 L720.5,295.5293 L720.5,302.8398 L710.5,312.8398 L465.5,312.8398 L465.5,295.5293 " fill="#EEEEEE" style="stroke:#000000;stroke-width:1.5;"/><rect fill="none" height="181.1738" style="stroke:#000000;stroke-width:1.5;" width="1360" x="465.5" y="295.5293"/><text fill="#000000" font-family="sans-serif" font-size="13" font-weight="bold" lengthAdjust="spacing" textLength="210" x="480.5" y="309.0977">Restaurant create (details TBD)</text><path d="M486.5,327.8398 L486.5,382.8398 L1225.5,382.8398 L1225.5,337.8398 L1215.5,327.8398 L486.5,327.8398 " fill="#FEFFDD" style="stroke:#181818;stroke-width:0.5;"/><path d="M1215.5,327.8398 L1215.5,337.8398 L1225.5,337.8398 L1215.5,327.8398 " fill="#FEFFDD" style="stroke:#181818;stroke-width:0.5;"/><text fill="#000000" font-family="sans-serif" font-size="13" lengthAdjust="spacing" textLength="94" x="492.5" y="345.4082">more details at</text><text fill="#000000" font-family="sans-serif" font-size="13" lengthAdjust="spacing" textLength="398" x="492.5" y="360.7188">- system-docs/platform/business-platform/restaurant-create</text><text fill="#000000" font-family="sans-serif" font-size="13" lengthAdjust="spacing" textLength="718" x="492.5" y="376.0293">- https://toasttab.atlassian.net/wiki/spaces/RES/pages/609780046/Restaurant+Creation+Flow+for+Developers</text><polygon fill="#181818" points="1246.5,406.082,1256.5,410.082,1246.5,414.082,1250.5,410.082" style="stroke:#181818;stroke-width:1.0;"/><line style="stroke:#181818;stroke-width:1.0;" x1="481.5" x2="1252.5" y1="410.082" y2="410.082"/><text fill="#000000" font-family="sans-serif" font-size="13" lengthAdjust="spacing" textLength="108" x="488.5" y="405.3398">Create restaurant</text><polygon fill="#181818" points="1797.5,435.3926,1807.5,439.3926,1797.5,443.3926,1801.5,439.3926" style="stroke:#181818;stroke-width:1.0;"/><line style="stroke:#181818;stroke-width:1.0;" x1="1258.5" x2="1803.5" y1="439.3926" y2="439.3926"/><text fill="#000000" font-family="sans-serif" font-size="13" lengthAdjust="spacing" textLength="108" x="1265.5" y="434.6504">Create restaurant</text><line style="stroke:#181818;stroke-width:1.0;" x1="783.5" x2="793.5" y1="468.7031" y2="464.7031"/><line style="stroke:#181818;stroke-width:1.0;" x1="783.5" x2="793.5" y1="468.7031" y2="472.7031"/><line style="stroke:#181818;stroke-width:1.0;" x1="782.5" x2="1808.5" y1="468.7031" y2="468.7031"/><text fill="#000000" font-family="sans-serif" font-size="13" lengthAdjust="spacing" textLength="198" x="799.5" y="463.9609">Emit RestaurantCreate message</text><path d="M465.5,494.7031 L677.5,494.7031 L677.5,502.0137 L667.5,512.0137 L465.5,512.0137 L465.5,494.7031 " fill="#EEEEEE" style="stroke:#000000;stroke-width:1.5;"/><rect fill="none" height="69.6211" style="stroke:#000000;stroke-width:1.5;" width="228" x="465.5" y="494.7031"/><text fill="#000000" font-family="sans-serif" font-size="13" font-weight="bold" lengthAdjust="spacing" textLength="167" x="480.5" y="508.2715">User create (details TBD)</text><line style="stroke:#181818;stroke-width:1.0;" x1="481.5" x2="523.5" y1="543.3242" y2="543.3242"/><line style="stroke:#181818;stroke-width:1.0;" x1="523.5" x2="523.5" y1="543.3242" y2="556.3242"/><line style="stroke:#181818;stroke-width:1.0;" x1="482.5" x2="523.5" y1="556.3242" y2="556.3242"/><polygon fill="#181818" points="492.5,552.3242,482.5,556.3242,492.5,560.3242,488.5,556.3242" style="stroke:#181818;stroke-width:1.0;"/><text fill="#000000" font-family="sans-serif" font-size="13" lengthAdjust="spacing" textLength="25" x="488.5" y="538.582">TBD</text><path d="M465.5,596.3242 L722.5,596.3242 L722.5,603.6348 L712.5,613.6348 L465.5,613.6348 L465.5,596.3242 " fill="#EEEEEE" style="stroke:#000000;stroke-width:1.5;"/><rect fill="none" height="186.8633" style="stroke:#000000;stroke-width:1.5;" width="1239.5" x="465.5" y="596.3242"/><text fill="#000000" font-family="sans-serif" font-size="13" font-weight="bold" lengthAdjust="spacing" textLength="212" x="480.5" y="609.8926">Account activiation initial email</text><line style="stroke:#181818;stroke-width:1.0;" x1="780.5" x2="770.5" y1="644.9453" y2="640.9453"/><line style="stroke:#181818;stroke-width:1.0;" x1="780.5" x2="770.5" y1="644.9453" y2="648.9453"/><line style="stroke:#181818;stroke-width:1.0;" x1="481.5" x2="781.5" y1="644.9453" y2="644.9453"/><text fill="#000000" font-family="sans-serif" font-size="13" lengthAdjust="spacing" textLength="277" x="488.5" y="640.2031">Emit InviteEmailEvent message (details TBD)</text><line style="stroke:#181818;stroke-width:1.0;" x1="1029.5" x2="1019.5" y1="674.2559" y2="670.2559"/><line style="stroke:#181818;stroke-width:1.0;" x1="1029.5" x2="1019.5" y1="674.2559" y2="678.2559"/><line style="stroke:#181818;stroke-width:1.0;" x1="782.5" x2="1030.5" y1="674.2559" y2="674.2559"/><text fill="#000000" font-family="sans-serif" font-size="13" lengthAdjust="spacing" textLength="225" x="789.5" y="669.5137">Consume InviteEmailEvent message</text><line style="stroke:#181818;stroke-width:1.0;" x1="1031.5" x2="1073.5" y1="703.5664" y2="703.5664"/><line style="stroke:#181818;stroke-width:1.0;" x1="1073.5" x2="1073.5" y1="703.5664" y2="716.5664"/><line style="stroke:#181818;stroke-width:1.0;" x1="1032.5" x2="1073.5" y1="716.5664" y2="716.5664"/><polygon fill="#181818" points="1042.5,712.5664,1032.5,716.5664,1042.5,720.5664,1038.5,716.5664" style="stroke:#181818;stroke-width:1.0;"/><text fill="#000000" font-family="sans-serif" font-size="13" lengthAdjust="spacing" textLength="213" x="1038.5" y="698.8242">Generate account activation email</text><polygon fill="#181818" points="1465,741.877,1475,745.877,1465,749.877,1469,745.877" style="stroke:#181818;stroke-width:1.0;"/><line style="stroke:#181818;stroke-width:1.0;" x1="1031.5" x2="1471" y1="745.877" y2="745.877"/><text fill="#000000" font-family="sans-serif" font-size="13" lengthAdjust="spacing" textLength="188" x="1038.5" y="741.1348">Send account activation email</text><polygon fill="#181818" points="1677,771.1875,1687,775.1875,1677,779.1875,1681,775.1875" style="stroke:#181818;stroke-width:1.0;"/><line style="stroke:#181818;stroke-width:1.0;" x1="1477" x2="1683" y1="775.1875" y2="775.1875"/><text fill="#000000" font-family="sans-serif" font-size="13" lengthAdjust="spacing" textLength="188" x="1484" y="770.4453">Send account activation email</text><polygon fill="#181818" points="1677,814.498,1687,818.498,1677,822.498,1681,818.498" style="stroke:#181818;stroke-width:1.0;"/><line style="stroke:#181818;stroke-width:1.0;" x1="41.5" x2="1683" y1="818.498" y2="818.498"/><text fill="#000000" font-family="sans-serif" font-size="13" lengthAdjust="spacing" textLength="188" x="48.5" y="813.7559">Read account activation email</text><polygon fill="#181818" points="1797.5,843.8086,1807.5,847.8086,1797.5,851.8086,1801.5,847.8086" style="stroke:#181818;stroke-width:1.0;"/><line style="stroke:#181818;stroke-width:1.0;" x1="41.5" x2="1803.5" y1="847.8086" y2="847.8086"/><text fill="#000000" font-family="sans-serif" font-size="13" lengthAdjust="spacing" textLength="136" x="48.5" y="843.0664">Activate user account</text><!--SRC=[XLHDRzim33rRluBjgKNWkWM6RikXGDTanGx5XgJ3peh2kC9iInNf9Dkl7oKxd_tO9J78H_AHZzI93xgiDJ2wly2XHNNomgBOSeLmQunh6vP_jalDrZKmnUSM6uCmiheCkeOpquQ00Y9T8S6YSgjpfRHX5-3qhYLsDOPJq0HchRmER8trMl2d8sVQgIsRv9pJeNCQiorSC9ZSj3XqqzQTanIt3LOzZfGGR15-j1Nf46t-ABLn3RL2Acz9Vh3MjgAEe7H-W6IdYVE0nBeDOkbWOVqQAYRh_Edhg1jivlV1pZkEvQ5pCoHu42Opj-w7LSld8V0n5lg5imJWbL9c3VdDZSnk27UkzXKomkF3hL9bSAs7AUiIGRUIlHFlR8uSkuN7BwDpbSr9mcLaGtXmIuJltWExFkhgIcMqwFpq1a2QWbHfKt2pBtgtBpvWm6TIAkiWa-qmmGJKGlY8LDOuCGPRFd4i3MB9QXSGDZ3DoPO3_I76EfyxGuMlDCiwrCMi9La6ednhsScNTnMxw2TcJyEYIEgndbrehZIHrSr5Wroix6zRaDS6gPYCfuMNdgcullpyyTFbvOVhOjV7u2vcbLu7NsNt1r9pCC8bLix7DSYoEANOatp6VcIYOIrwTStlo8axH3b5sDUzl4fY2saOrvRt9jcZQsbRMAfiJvT-wZzb9T-QTqygoIocW_3t5RQTnBQnR7K5wP9Kds-FwBTcQHd7qJjUnfUY9thCn7TnSeLndTEDlXchCe55sWbzZms6s9j-kO0zgnvEvH3YCRw3f3BbJVVtF_3UVD8jRiCcgDy9CrkX-vSLqwEn2L3_0000]--></g></svg>