<?xml version="1.0" encoding="UTF-8" standalone="no"?><svg xmlns="http://www.w3.org/2000/svg" xmlns:xlink="http://www.w3.org/1999/xlink" contentStyleType="text/css" height="1241px" preserveAspectRatio="none" style="width:2194px;height:1241px;background:#FFFFFF;" version="1.1" viewBox="0 0 2194 1241" width="2194px" zoomAndPan="magnify"><defs/><g><text fill="#000000" font-family="sans-serif" font-size="14" font-weight="bold" lengthAdjust="spacing" textLength="433" x="885.75" y="28.5352">Account Activation Sequence Diagram (proposed sales flow)</text><line style="stroke:#181818;stroke-width:1.0;" x1="206.375" x2="206.375" y1="150.2871" y2="818.498"/><polygon fill="#181818" points="202.375,160.2871,206.375,150.2871,210.375,160.2871,206.375,156.2871" style="stroke:#181818;stroke-width:1.0;"/><polygon fill="#181818" points="202.375,808.498,206.375,818.498,210.375,808.498,206.375,812.498" style="stroke:#181818;stroke-width:1.0;"/><text fill="#000000" font-family="sans-serif" font-size="13" lengthAdjust="spacing" textLength="189" x="210.375" y="489.3057">SLA TBD but must be good UX</text><line style="stroke:#181818;stroke-width:0.5;stroke-dasharray:5.0,5.0;" x1="43" x2="43" y1="118.9766" y2="1159.293"/><line style="stroke:#181818;stroke-width:0.5;stroke-dasharray:5.0,5.0;" x1="328" x2="328" y1="118.9766" y2="1159.293"/><line style="stroke:#181818;stroke-width:0.5;stroke-dasharray:5.0,5.0;" x1="411.5" x2="411.5" y1="118.9766" y2="1159.293"/><line style="stroke:#181818;stroke-width:0.5;stroke-dasharray:5.0,5.0;" x1="657.5" x2="657.5" y1="118.9766" y2="1159.293"/><line style="stroke:#181818;stroke-width:0.5;stroke-dasharray:5.0,5.0;" x1="819.5" x2="819.5" y1="118.9766" y2="1159.293"/><line style="stroke:#181818;stroke-width:0.5;stroke-dasharray:5.0,5.0;" x1="1120.5" x2="1120.5" y1="118.9766" y2="1159.293"/><line style="stroke:#181818;stroke-width:0.5;stroke-dasharray:5.0,5.0;" x1="1369.5" x2="1369.5" y1="118.9766" y2="1159.293"/><line style="stroke:#181818;stroke-width:0.5;stroke-dasharray:5.0,5.0;" x1="1596.5" x2="1596.5" y1="118.9766" y2="1159.293"/><line style="stroke:#181818;stroke-width:0.5;stroke-dasharray:5.0,5.0;" x1="1720" x2="1720" y1="118.9766" y2="1159.293"/><line style="stroke:#181818;stroke-width:0.5;stroke-dasharray:5.0,5.0;" x1="1815" x2="1815" y1="118.9766" y2="1159.293"/><line style="stroke:#181818;stroke-width:0.5;stroke-dasharray:5.0,5.0;" x1="2027" x2="2027" y1="118.9766" y2="1159.293"/><line style="stroke:#181818;stroke-width:0.5;stroke-dasharray:5.0,5.0;" x1="2147.5" x2="2147.5" y1="118.9766" y2="1159.293"/><text fill="#000000" font-family="sans-serif" font-size="14" lengthAdjust="spacing" textLength="67" x="6.5" y="116.0234">Customer</text><ellipse cx="43" cy="50.9883" fill="#E2E2F0" rx="8" ry="8" style="stroke:#181818;stroke-width:0.5;"/><path d="M43,58.9883 L43,85.9883 M30,66.9883 L56,66.9883 M43,85.9883 L30,100.9883 M43,85.9883 L56,100.9883 " fill="none" style="stroke:#181818;stroke-width:0.5;"/><rect fill="#E2E2F0" height="30.4883" rx="2.5" ry="2.5" style="stroke:#181818;stroke-width:0.5;" width="79" x="288.5" y="87.4883"/><text fill="#000000" font-family="sans-serif" font-size="14" lengthAdjust="spacing" textLength="65" x="295.5" y="108.0234">DocuSign</text><rect fill="#E2E2F0" height="30.4883" rx="2.5" ry="2.5" style="stroke:#181818;stroke-width:0.5;" width="68" x="377.5" y="87.4883"/><text fill="#000000" font-family="sans-serif" font-size="14" lengthAdjust="spacing" textLength="54" x="384.5" y="108.0234">oat-spa</text><rect fill="#E2E2F0" height="30.4883" rx="2.5" ry="2.5" style="stroke:#181818;stroke-width:0.5;" width="84" x="615.5" y="87.4883"/><text fill="#000000" font-family="sans-serif" font-size="14" lengthAdjust="spacing" textLength="70" x="622.5" y="108.0234">Salesforce</text><rect fill="#E2E2F0" height="30.4883" rx="2.5" ry="2.5" style="stroke:#181818;stroke-width:0.5;" width="145" x="747" y="87.4883"/><text fill="#000000" font-family="sans-serif" font-size="14" lengthAdjust="spacing" textLength="131" x="754" y="108.0234">salesforce-sentinel</text><path d="M1094.5,92.4883 L1146.5,92.4883 C1151.5,92.4883 1151.5,105.7324 1151.5,105.7324 C1151.5,105.7324 1151.5,118.9766 1146.5,118.9766 L1094.5,118.9766 C1089.5,118.9766 1089.5,105.7324 1089.5,105.7324 C1089.5,105.7324 1089.5,92.4883 1094.5,92.4883 " fill="#E2E2F0" style="stroke:#181818;stroke-width:0.5;"/><path d="M1146.5,92.4883 C1141.5,92.4883 1141.5,105.7324 1141.5,105.7324 C1141.5,118.9766 1146.5,118.9766 1146.5,118.9766 " fill="none" style="stroke:#181818;stroke-width:0.5;"/><text fill="#000000" font-family="sans-serif" font-size="14" lengthAdjust="spacing" textLength="42" x="1094.5" y="111.0234">Pulsar</text><rect fill="#E2E2F0" height="30.4883" rx="2.5" ry="2.5" style="stroke:#181818;stroke-width:0.5;" width="172" x="1283.5" y="87.4883"/><text fill="#000000" font-family="sans-serif" font-size="14" lengthAdjust="spacing" textLength="158" x="1290.5" y="108.0234">consumer-user-emails</text><rect fill="#E2E2F0" height="30.4883" rx="2.5" ry="2.5" style="stroke:#181818;stroke-width:0.5;" width="134" x="1529.5" y="87.4883"/><text fill="#000000" font-family="sans-serif" font-size="14" lengthAdjust="spacing" textLength="120" x="1536.5" y="108.0234">toast-restaurants</text><rect fill="#E2E2F0" height="30.4883" rx="2.5" ry="2.5" style="stroke:#181818;stroke-width:0.5;" width="93" x="1673.5" y="87.4883"/><text fill="#000000" font-family="sans-serif" font-size="14" lengthAdjust="spacing" textLength="79" x="1680.5" y="108.0234">toast-users</text><rect fill="#E2E2F0" height="30.4883" rx="2.5" ry="2.5" style="stroke:#181818;stroke-width:0.5;" width="77" x="1776.5" y="87.4883"/><text fill="#000000" font-family="sans-serif" font-size="14" lengthAdjust="spacing" textLength="63" x="1783.5" y="108.0234">SendGrid</text><rect fill="#E2E2F0" height="30.4883" rx="2.5" ry="2.5" style="stroke:#181818;stroke-width:0.5;" width="140" x="1957" y="87.4883"/><text fill="#000000" font-family="sans-serif" font-size="14" lengthAdjust="spacing" textLength="126" x="1964" y="108.0234">Customer Mailbox</text><rect fill="#E2E2F0" height="30.4883" rx="2.5" ry="2.5" style="stroke:#181818;stroke-width:0.5;" width="81" x="2107" y="87.4883"/><text fill="#000000" font-family="sans-serif" font-size="14" lengthAdjust="spacing" textLength="67" x="2114" y="108.0234">ToastWeb</text><text fill="#000000" font-family="sans-serif" font-size="14" lengthAdjust="spacing" textLength="67" x="6.5" y="1232.8281">Customer</text><ellipse cx="43" cy="1167.793" fill="#E2E2F0" rx="8" ry="8" style="stroke:#181818;stroke-width:0.5;"/><path d="M43,1175.793 L43,1202.793 M30,1183.793 L56,1183.793 M43,1202.793 L30,1217.793 M43,1202.793 L56,1217.793 " fill="none" style="stroke:#181818;stroke-width:0.5;"/><rect fill="#E2E2F0" height="30.4883" rx="2.5" ry="2.5" style="stroke:#181818;stroke-width:0.5;" width="79" x="288.5" y="1159.293"/><text fill="#000000" font-family="sans-serif" font-size="14" lengthAdjust="spacing" textLength="65" x="295.5" y="1179.8281">DocuSign</text><rect fill="#E2E2F0" height="30.4883" rx="2.5" ry="2.5" style="stroke:#181818;stroke-width:0.5;" width="68" x="377.5" y="1159.293"/><text fill="#000000" font-family="sans-serif" font-size="14" lengthAdjust="spacing" textLength="54" x="384.5" y="1179.8281">oat-spa</text><rect fill="#E2E2F0" height="30.4883" rx="2.5" ry="2.5" style="stroke:#181818;stroke-width:0.5;" width="84" x="615.5" y="1159.293"/><text fill="#000000" font-family="sans-serif" font-size="14" lengthAdjust="spacing" textLength="70" x="622.5" y="1179.8281">Salesforce</text><rect fill="#E2E2F0" height="30.4883" rx="2.5" ry="2.5" style="stroke:#181818;stroke-width:0.5;" width="145" x="747" y="1159.293"/><text fill="#000000" font-family="sans-serif" font-size="14" lengthAdjust="spacing" textLength="131" x="754" y="1179.8281">salesforce-sentinel</text><path d="M1094.5,1159.293 L1146.5,1159.293 C1151.5,1159.293 1151.5,1172.5371 1151.5,1172.5371 C1151.5,1172.5371 1151.5,1185.7813 1146.5,1185.7813 L1094.5,1185.7813 C1089.5,1185.7813 1089.5,1172.5371 1089.5,1172.5371 C1089.5,1172.5371 1089.5,1159.293 1094.5,1159.293 " fill="#E2E2F0" style="stroke:#181818;stroke-width:0.5;"/><path d="M1146.5,1159.293 C1141.5,1159.293 1141.5,1172.5371 1141.5,1172.5371 C1141.5,1185.7813 1146.5,1185.7813 1146.5,1185.7813 " fill="none" style="stroke:#181818;stroke-width:0.5;"/><text fill="#000000" font-family="sans-serif" font-size="14" lengthAdjust="spacing" textLength="42" x="1094.5" y="1177.8281">Pulsar</text><rect fill="#E2E2F0" height="30.4883" rx="2.5" ry="2.5" style="stroke:#181818;stroke-width:0.5;" width="172" x="1283.5" y="1159.293"/><text fill="#000000" font-family="sans-serif" font-size="14" lengthAdjust="spacing" textLength="158" x="1290.5" y="1179.8281">consumer-user-emails</text><rect fill="#E2E2F0" height="30.4883" rx="2.5" ry="2.5" style="stroke:#181818;stroke-width:0.5;" width="134" x="1529.5" y="1159.293"/><text fill="#000000" font-family="sans-serif" font-size="14" lengthAdjust="spacing" textLength="120" x="1536.5" y="1179.8281">toast-restaurants</text><rect fill="#E2E2F0" height="30.4883" rx="2.5" ry="2.5" style="stroke:#181818;stroke-width:0.5;" width="93" x="1673.5" y="1159.293"/><text fill="#000000" font-family="sans-serif" font-size="14" lengthAdjust="spacing" textLength="79" x="1680.5" y="1179.8281">toast-users</text><rect fill="#E2E2F0" height="30.4883" rx="2.5" ry="2.5" style="stroke:#181818;stroke-width:0.5;" width="77" x="1776.5" y="1159.293"/><text fill="#000000" font-family="sans-serif" font-size="14" lengthAdjust="spacing" textLength="63" x="1783.5" y="1179.8281">SendGrid</text><rect fill="#E2E2F0" height="30.4883" rx="2.5" ry="2.5" style="stroke:#181818;stroke-width:0.5;" width="140" x="1957" y="1159.293"/><text fill="#000000" font-family="sans-serif" font-size="14" lengthAdjust="spacing" textLength="126" x="1964" y="1179.8281">Customer Mailbox</text><rect fill="#E2E2F0" height="30.4883" rx="2.5" ry="2.5" style="stroke:#181818;stroke-width:0.5;" width="81" x="2107" y="1159.293"/><text fill="#000000" font-family="sans-serif" font-size="14" lengthAdjust="spacing" textLength="67" x="2114" y="1179.8281">ToastWeb</text><polygon fill="#181818" points="316,144.2871,326,148.2871,316,152.2871,320,148.2871" style="stroke:#181818;stroke-width:1.0;"/><line style="stroke:#181818;stroke-width:1.0;" x1="43" x2="322" y1="148.2871" y2="148.2871"/><text fill="#000000" font-family="sans-serif" font-size="13" lengthAdjust="spacing" textLength="92" x="50" y="143.5449">Complete TMA</text><path d="M293,160.2871 L520,160.2871 L520,167.5977 L510,177.5977 L293,177.5977 L293,160.2871 " fill="#EEEEEE" style="stroke:#000000;stroke-width:1.5;"/><rect fill="none" height="402.7266" style="stroke:#000000;stroke-width:1.5;" width="1895.5" x="293" y="160.2871"/><text fill="#000000" font-family="sans-serif" font-size="13" font-weight="bold" lengthAdjust="spacing" textLength="182" x="308" y="173.8555">Account activation prereqs</text><path d="M312,191.5977 L565,191.5977 L565,198.9082 L555,208.9082 L312,208.9082 L312,191.5977 " fill="#EEEEEE" style="stroke:#000000;stroke-width:1.5;"/><rect fill="none" height="85.9316" style="stroke:#000000;stroke-width:1.5;" width="523.5" x="312" y="191.5977"/><text fill="#000000" font-family="sans-serif" font-size="13" font-weight="bold" lengthAdjust="spacing" textLength="208" x="327" y="205.166">Stage automation (details TBD)</text><polygon fill="#181818" points="645.5,236.2188,655.5,240.2188,645.5,244.2188,649.5,240.2188" style="stroke:#181818;stroke-width:1.0;"/><line style="stroke:#181818;stroke-width:1.0;" x1="328" x2="651.5" y1="240.2188" y2="240.2188"/><text fill="#000000" font-family="sans-serif" font-size="13" lengthAdjust="spacing" textLength="138" x="335" y="235.4766">Move Opp to Stage 11</text><polygon fill="#181818" points="807.5,265.5293,817.5,269.5293,807.5,273.5293,811.5,269.5293" style="stroke:#181818;stroke-width:1.0;"/><line style="stroke:#181818;stroke-width:1.0;" x1="657.5" x2="813.5" y1="269.5293" y2="269.5293"/><text fill="#000000" font-family="sans-serif" font-size="13" lengthAdjust="spacing" textLength="138" x="664.5" y="264.7871">Move Opp to Stage 11</text><path d="M803.5,295.5293 L1058.5,295.5293 L1058.5,302.8398 L1048.5,312.8398 L803.5,312.8398 L803.5,295.5293 " fill="#EEEEEE" style="stroke:#000000;stroke-width:1.5;"/><rect fill="none" height="165.8633" style="stroke:#000000;stroke-width:1.5;" width="1360" x="803.5" y="295.5293"/><text fill="#000000" font-family="sans-serif" font-size="13" font-weight="bold" lengthAdjust="spacing" textLength="210" x="818.5" y="309.0977">Restaurant create (details TBD)</text><path d="M824.5,327.8398 L824.5,367.8398 L1231.5,367.8398 L1231.5,337.8398 L1221.5,327.8398 L824.5,327.8398 " fill="#FEFFDD" style="stroke:#181818;stroke-width:0.5;"/><path d="M1221.5,327.8398 L1221.5,337.8398 L1231.5,337.8398 L1221.5,327.8398 " fill="#FEFFDD" style="stroke:#181818;stroke-width:0.5;"/><text fill="#000000" font-family="sans-serif" font-size="13" lengthAdjust="spacing" textLength="94" x="830.5" y="345.4082">more details at</text><text fill="#000000" font-family="sans-serif" font-size="13" lengthAdjust="spacing" textLength="386" x="830.5" y="360.7188">system-docs/platform/business-platform/restaurant-create</text><polygon fill="#181818" points="1584.5,390.7715,1594.5,394.7715,1584.5,398.7715,1588.5,394.7715" style="stroke:#181818;stroke-width:1.0;"/><line style="stroke:#181818;stroke-width:1.0;" x1="819.5" x2="1590.5" y1="394.7715" y2="394.7715"/><text fill="#000000" font-family="sans-serif" font-size="13" lengthAdjust="spacing" textLength="108" x="826.5" y="390.0293">Create restaurant</text><polygon fill="#181818" points="2135.5,420.082,2145.5,424.082,2135.5,428.082,2139.5,424.082" style="stroke:#181818;stroke-width:1.0;"/><line style="stroke:#181818;stroke-width:1.0;" x1="1596.5" x2="2141.5" y1="424.082" y2="424.082"/><text fill="#000000" font-family="sans-serif" font-size="13" lengthAdjust="spacing" textLength="108" x="1603.5" y="419.3398">Create restaurant</text><line style="stroke:#181818;stroke-width:1.0;" x1="1121.5" x2="1131.5" y1="453.3926" y2="449.3926"/><line style="stroke:#181818;stroke-width:1.0;" x1="1121.5" x2="1131.5" y1="453.3926" y2="457.3926"/><line style="stroke:#181818;stroke-width:1.0;" x1="1120.5" x2="2146.5" y1="453.3926" y2="453.3926"/><text fill="#000000" font-family="sans-serif" font-size="13" lengthAdjust="spacing" textLength="198" x="1137.5" y="448.6504">Emit RestaurantCreate message</text><path d="M803.5,479.3926 L1015.5,479.3926 L1015.5,486.7031 L1005.5,496.7031 L803.5,496.7031 L803.5,479.3926 " fill="#EEEEEE" style="stroke:#000000;stroke-width:1.5;"/><rect fill="none" height="69.6211" style="stroke:#000000;stroke-width:1.5;" width="228" x="803.5" y="479.3926"/><text fill="#000000" font-family="sans-serif" font-size="13" font-weight="bold" lengthAdjust="spacing" textLength="167" x="818.5" y="492.9609">User create (details TBD)</text><line style="stroke:#181818;stroke-width:1.0;" x1="819.5" x2="861.5" y1="528.0137" y2="528.0137"/><line style="stroke:#181818;stroke-width:1.0;" x1="861.5" x2="861.5" y1="528.0137" y2="541.0137"/><line style="stroke:#181818;stroke-width:1.0;" x1="820.5" x2="861.5" y1="541.0137" y2="541.0137"/><polygon fill="#181818" points="830.5,537.0137,820.5,541.0137,830.5,545.0137,826.5,541.0137" style="stroke:#181818;stroke-width:1.0;"/><text fill="#000000" font-family="sans-serif" font-size="13" lengthAdjust="spacing" textLength="25" x="826.5" y="523.2715">TBD</text><path d="M8,581.0137 L76,581.0137 L76,588.3242 L66,598.3242 L8,598.3242 L8,581.0137 " fill="#EEEEEE" style="stroke:#000000;stroke-width:1.5;"/><rect fill="none" height="554.2793" style="stroke:#000000;stroke-width:1.5;" width="2180.5" x="8" y="581.0137"/><text fill="#000000" font-family="sans-serif" font-size="13" font-weight="bold" lengthAdjust="spacing" textLength="23" x="23" y="594.582">par</text><path d="M27,612.3242 L272,612.3242 L272,619.6348 L262,629.6348 L27,629.6348 L27,612.3242 " fill="#EEEEEE" style="stroke:#000000;stroke-width:1.5;"/><rect fill="none" height="245.4844" style="stroke:#000000;stroke-width:1.5;" width="2136.5" x="27" y="612.3242"/><text fill="#000000" font-family="sans-serif" font-size="13" font-weight="bold" lengthAdjust="spacing" textLength="200" x="42" y="625.8926">Redirect to account activation</text><polygon fill="#181818" points="54,656.9453,44,660.9453,54,664.9453,50,660.9453" style="stroke:#181818;stroke-width:1.0;"/><line style="stroke:#181818;stroke-width:1.0;" x1="48" x2="327" y1="660.9453" y2="660.9453"/><text fill="#000000" font-family="sans-serif" font-size="13" lengthAdjust="spacing" textLength="261" x="60" y="656.2031">Redirect to OAT SPA (param: envelope-id)</text><polygon fill="#181818" points="399.5,686.2559,409.5,690.2559,399.5,694.2559,403.5,690.2559" style="stroke:#181818;stroke-width:1.0;"/><line style="stroke:#181818;stroke-width:1.0;" x1="43" x2="405.5" y1="690.2559" y2="690.2559"/><text fill="#000000" font-family="sans-serif" font-size="13" lengthAdjust="spacing" textLength="272" x="50" y="685.5137">Intermediate OAT SPA (param: envelope-id)</text><line style="stroke:#181818;stroke-width:1.0;" x1="411.5" x2="453.5" y1="719.5664" y2="719.5664"/><line style="stroke:#181818;stroke-width:1.0;" x1="453.5" x2="453.5" y1="719.5664" y2="732.5664"/><line style="stroke:#181818;stroke-width:1.0;" x1="412.5" x2="453.5" y1="732.5664" y2="732.5664"/><polygon fill="#181818" points="422.5,728.5664,412.5,732.5664,422.5,736.5664,418.5,732.5664" style="stroke:#181818;stroke-width:1.0;"/><text fill="#000000" font-family="sans-serif" font-size="13" lengthAdjust="spacing" textLength="232" x="418.5" y="714.8242">Fetch Rx ID and User ID (details TBD)</text><polygon fill="#181818" points="1708,757.877,1718,761.877,1708,765.877,1712,761.877" style="stroke:#181818;stroke-width:1.0;"/><line style="stroke:#181818;stroke-width:1.0;" x1="411.5" x2="1714" y1="761.877" y2="761.877"/><text fill="#000000" font-family="sans-serif" font-size="13" lengthAdjust="spacing" textLength="262" x="418.5" y="757.1348">GET /api/activation-url?rxid=X&amp;userid=Y</text><polygon fill="#181818" points="422.5,787.1875,412.5,791.1875,422.5,795.1875,418.5,791.1875" style="stroke:#181818;stroke-width:1.0;"/><line style="stroke:#181818;stroke-width:1.0;" x1="416.5" x2="1719" y1="791.1875" y2="791.1875"/><text fill="#000000" font-family="sans-serif" font-size="13" lengthAdjust="spacing" textLength="193" x="428.5" y="786.4453">Return Account Activation URL</text><polygon fill="#181818" points="54,816.498,44,820.498,54,824.498,50,820.498" style="stroke:#181818;stroke-width:1.0;"/><line style="stroke:#181818;stroke-width:1.0;" x1="48" x2="410.5" y1="820.498" y2="820.498"/><text fill="#000000" font-family="sans-serif" font-size="13" lengthAdjust="spacing" textLength="192" x="60" y="815.7559">Redirect to Account Activation</text><polygon fill="#181818" points="2135.5,845.8086,2145.5,849.8086,2135.5,853.8086,2139.5,849.8086" style="stroke:#181818;stroke-width:1.0;"/><line style="stroke:#181818;stroke-width:1.0;" x1="43" x2="2141.5" y1="849.8086" y2="849.8086"/><text fill="#000000" font-family="sans-serif" font-size="13" lengthAdjust="spacing" textLength="136" x="50" y="845.0664">Activate user account</text><path d="M27,875.8086 L284,875.8086 L284,883.1191 L274,893.1191 L27,893.1191 L27,875.8086 " fill="#EEEEEE" style="stroke:#000000;stroke-width:1.5;"/><rect fill="none" height="245.4844" style="stroke:#000000;stroke-width:1.5;" width="2136.5" x="27" y="875.8086"/><text fill="#000000" font-family="sans-serif" font-size="13" font-weight="bold" lengthAdjust="spacing" textLength="212" x="42" y="889.377">Account activiation initial email</text><line style="stroke:#181818;stroke-width:1.0;" x1="1118.5" x2="1108.5" y1="924.4297" y2="920.4297"/><line style="stroke:#181818;stroke-width:1.0;" x1="1118.5" x2="1108.5" y1="924.4297" y2="928.4297"/><line style="stroke:#181818;stroke-width:1.0;" x1="819.5" x2="1119.5" y1="924.4297" y2="924.4297"/><text fill="#000000" font-family="sans-serif" font-size="13" lengthAdjust="spacing" textLength="277" x="826.5" y="919.6875">Emit InviteEmailEvent message (details TBD)</text><line style="stroke:#181818;stroke-width:1.0;" x1="1367.5" x2="1357.5" y1="953.7402" y2="949.7402"/><line style="stroke:#181818;stroke-width:1.0;" x1="1367.5" x2="1357.5" y1="953.7402" y2="957.7402"/><line style="stroke:#181818;stroke-width:1.0;" x1="1120.5" x2="1368.5" y1="953.7402" y2="953.7402"/><text fill="#000000" font-family="sans-serif" font-size="13" lengthAdjust="spacing" textLength="225" x="1127.5" y="948.998">Consume InviteEmailEvent message</text><line style="stroke:#181818;stroke-width:1.0;" x1="1369.5" x2="1411.5" y1="983.0508" y2="983.0508"/><line style="stroke:#181818;stroke-width:1.0;" x1="1411.5" x2="1411.5" y1="983.0508" y2="996.0508"/><line style="stroke:#181818;stroke-width:1.0;" x1="1370.5" x2="1411.5" y1="996.0508" y2="996.0508"/><polygon fill="#181818" points="1380.5,992.0508,1370.5,996.0508,1380.5,1000.0508,1376.5,996.0508" style="stroke:#181818;stroke-width:1.0;"/><text fill="#000000" font-family="sans-serif" font-size="13" lengthAdjust="spacing" textLength="213" x="1376.5" y="978.3086">Generate account activation email</text><polygon fill="#181818" points="1803,1021.3613,1813,1025.3613,1803,1029.3613,1807,1025.3613" style="stroke:#181818;stroke-width:1.0;"/><line style="stroke:#181818;stroke-width:1.0;" x1="1369.5" x2="1809" y1="1025.3613" y2="1025.3613"/><text fill="#000000" font-family="sans-serif" font-size="13" lengthAdjust="spacing" textLength="188" x="1376.5" y="1020.6191">Send account activation email</text><polygon fill="#181818" points="2015,1050.6719,2025,1054.6719,2015,1058.6719,2019,1054.6719" style="stroke:#181818;stroke-width:1.0;"/><line style="stroke:#181818;stroke-width:1.0;" x1="1815" x2="2021" y1="1054.6719" y2="1054.6719"/><text fill="#000000" font-family="sans-serif" font-size="13" lengthAdjust="spacing" textLength="188" x="1822" y="1049.9297">Send account activation email</text><polygon fill="#181818" points="2015,1079.9824,2025,1083.9824,2015,1087.9824,2019,1083.9824" style="stroke:#181818;stroke-width:1.0;"/><line style="stroke:#181818;stroke-width:1.0;" x1="43" x2="2021" y1="1083.9824" y2="1083.9824"/><text fill="#000000" font-family="sans-serif" font-size="13" lengthAdjust="spacing" textLength="188" x="50" y="1079.2402">Read account activation email</text><polygon fill="#181818" points="2135.5,1109.293,2145.5,1113.293,2135.5,1117.293,2139.5,1113.293" style="stroke:#181818;stroke-width:1.0;"/><line style="stroke:#181818;stroke-width:1.0;" x1="43" x2="2141.5" y1="1113.293" y2="1113.293"/><text fill="#000000" font-family="sans-serif" font-size="13" lengthAdjust="spacing" textLength="136" x="50" y="1108.5508">Activate user account</text><line style="stroke:#181818;stroke-width:1.0;" x1="206.375" x2="206.375" y1="150.2871" y2="818.498"/><polygon fill="#181818" points="202.375,160.2871,206.375,150.2871,210.375,160.2871,206.375,156.2871" style="stroke:#181818;stroke-width:1.0;"/><polygon fill="#181818" points="202.375,808.498,206.375,818.498,210.375,808.498,206.375,812.498" style="stroke:#181818;stroke-width:1.0;"/><text fill="#000000" font-family="sans-serif" font-size="13" lengthAdjust="spacing" textLength="189" x="210.375" y="489.3057">SLA TBD but must be good UX</text><!--SRC=[ZLHDRzim33rRluBjOLWFHj1hi7N8cgmeqA95acBTKR4PLu1jkHALP2lwtqT9Thwpxf8GugFv-FXnrXXPL188zHyWur2S7Rm8KbGY3B9CkvhudzH2aj8rJF3LOPqX39KiZApWSsDqeotcO6M95kQbNbu88JFI1iwldILTeJa7QI5RYKOQKfbg97_rVAWpDr557PovtNLgIQbjPF2npUQkV-AppRN9C43iVDTjr-xKOasgnhB5MS4LE8H7Lrff_5kpbphJjNLCEdMMVx2IghIn09Pc1qbQMaeDMfBEy4k4cTKnbFzOz0ThhngiynkZyiYns7Ls8i8zCvdfLIjcnUOkSEeJ_SHP0D1IY3ScPkYTmP1UiSHzkDPLKo8XJEy7GXH6ksRTPhbfSsFGuAiL8ecG2Sa2GJhc4G6VSoIl2qo_3oz4akJMPx3pFjph1S93qm3fDkpoaW5s7W7s588LW91idNIyrXKoWv99xsUjDJyQLRnGQ6oI99Ks21rAad-olorXbUOwixscbCHJKVLcpl9CM9kkNpPTJ6CsZlMSV8x0FrHeLgnX9BC9OBS92jFok9UMxBtYGUl3g5AqLLcBhfWA2t5CXIUUbbFrjwI2gloq4xvbyf1qlHvZhWncvBMN1tqNRHyphd8R-J2OmkHnmCikUUVxWFK2IzrWgdAc4QShBcaVRcj2Kt6m9_plm1Yo7Vm3ANk1yGfkXo2vW50ystk5RmB3BlNXPZI5dcnKRrDBwapvpQnK_lNvaqUnyKia0R-TSOpaJ7tir3sDxqJonZA-moRVlZA7STouRks-S43yG1ycTmDF7cQEeEA5XXb2eJMN-2mw2Vtuj1_2K5dNekrc7jbP5GchMf6I9OIB9ThXs9gwstgX24VUErhmKUocRb_T9iRnjVFt8jp2ax5CdMzfsg9li4RZoH-ELiUgXTk29V5LdKRQ8Whkxzo7u2XW1nwZ_1ZyNsfxqw_FNm00]--></g></svg>