<?xml version="1.0" encoding="UTF-8" standalone="no"?><svg xmlns="http://www.w3.org/2000/svg" xmlns:xlink="http://www.w3.org/1999/xlink" contentStyleType="text/css" height="1199px" preserveAspectRatio="none" style="width:1899px;height:1199px;background:#FFFFFF;" version="1.1" viewBox="0 0 1899 1199" width="1899px" zoomAndPan="magnify"><defs/><g><text fill="#000000" font-family="sans-serif" font-size="14" font-weight="bold" lengthAdjust="spacing" textLength="433" x="738.25" y="28.5352">Account Activation Sequence Diagram (proposed sales flow)</text><line style="stroke:#181818;stroke-width:1.0;" x1="138.875" x2="138.875" y1="150.2871" y2="776.1875"/><polygon fill="#181818" points="134.875,160.2871,138.875,150.2871,142.875,160.2871,138.875,156.2871" style="stroke:#181818;stroke-width:1.0;"/><polygon fill="#181818" points="134.875,766.1875,138.875,776.1875,142.875,766.1875,138.875,770.1875" style="stroke:#181818;stroke-width:1.0;"/><text fill="#000000" font-family="sans-serif" font-size="13" lengthAdjust="spacing" textLength="189" x="142.875" y="468.1504">SLA TBD but must be good UX</text><line style="stroke:#181818;stroke-width:0.5;stroke-dasharray:5.0,5.0;" x1="43" x2="43" y1="118.9766" y2="1116.9824"/><line style="stroke:#181818;stroke-width:0.5;stroke-dasharray:5.0,5.0;" x1="193" x2="193" y1="118.9766" y2="1116.9824"/><line style="stroke:#181818;stroke-width:0.5;stroke-dasharray:5.0,5.0;" x1="276.5" x2="276.5" y1="118.9766" y2="1116.9824"/><line style="stroke:#181818;stroke-width:0.5;stroke-dasharray:5.0,5.0;" x1="362.5" x2="362.5" y1="118.9766" y2="1116.9824"/><line style="stroke:#181818;stroke-width:0.5;stroke-dasharray:5.0,5.0;" x1="524.5" x2="524.5" y1="118.9766" y2="1116.9824"/><line style="stroke:#181818;stroke-width:0.5;stroke-dasharray:5.0,5.0;" x1="825.5" x2="825.5" y1="118.9766" y2="1116.9824"/><line style="stroke:#181818;stroke-width:0.5;stroke-dasharray:5.0,5.0;" x1="1074.5" x2="1074.5" y1="118.9766" y2="1116.9824"/><line style="stroke:#181818;stroke-width:0.5;stroke-dasharray:5.0,5.0;" x1="1301.5" x2="1301.5" y1="118.9766" y2="1116.9824"/><line style="stroke:#181818;stroke-width:0.5;stroke-dasharray:5.0,5.0;" x1="1425" x2="1425" y1="118.9766" y2="1116.9824"/><line style="stroke:#181818;stroke-width:0.5;stroke-dasharray:5.0,5.0;" x1="1520" x2="1520" y1="118.9766" y2="1116.9824"/><line style="stroke:#181818;stroke-width:0.5;stroke-dasharray:5.0,5.0;" x1="1732" x2="1732" y1="118.9766" y2="1116.9824"/><line style="stroke:#181818;stroke-width:0.5;stroke-dasharray:5.0,5.0;" x1="1852.5" x2="1852.5" y1="118.9766" y2="1116.9824"/><text fill="#000000" font-family="sans-serif" font-size="14" lengthAdjust="spacing" textLength="67" x="6.5" y="116.0234">Customer</text><ellipse cx="43" cy="50.9883" fill="#E2E2F0" rx="8" ry="8" style="stroke:#181818;stroke-width:0.5;"/><path d="M43,58.9883 L43,85.9883 M30,66.9883 L56,66.9883 M43,85.9883 L30,100.9883 M43,85.9883 L56,100.9883 " fill="none" style="stroke:#181818;stroke-width:0.5;"/><rect fill="#E2E2F0" height="30.4883" rx="2.5" ry="2.5" style="stroke:#181818;stroke-width:0.5;" width="79" x="153.5" y="87.4883"/><text fill="#000000" font-family="sans-serif" font-size="14" lengthAdjust="spacing" textLength="65" x="160.5" y="108.0234">DocuSign</text><rect fill="#E2E2F0" height="30.4883" rx="2.5" ry="2.5" style="stroke:#181818;stroke-width:0.5;" width="68" x="242.5" y="87.4883"/><text fill="#000000" font-family="sans-serif" font-size="14" lengthAdjust="spacing" textLength="54" x="249.5" y="108.0234">oat-spa</text><rect fill="#E2E2F0" height="30.4883" rx="2.5" ry="2.5" style="stroke:#181818;stroke-width:0.5;" width="84" x="320.5" y="87.4883"/><text fill="#000000" font-family="sans-serif" font-size="14" lengthAdjust="spacing" textLength="70" x="327.5" y="108.0234">Salesforce</text><rect fill="#E2E2F0" height="30.4883" rx="2.5" ry="2.5" style="stroke:#181818;stroke-width:0.5;" width="145" x="452" y="87.4883"/><text fill="#000000" font-family="sans-serif" font-size="14" lengthAdjust="spacing" textLength="131" x="459" y="108.0234">salesforce-sentinel</text><path d="M799.5,92.4883 L851.5,92.4883 C856.5,92.4883 856.5,105.7324 856.5,105.7324 C856.5,105.7324 856.5,118.9766 851.5,118.9766 L799.5,118.9766 C794.5,118.9766 794.5,105.7324 794.5,105.7324 C794.5,105.7324 794.5,92.4883 799.5,92.4883 " fill="#E2E2F0" style="stroke:#181818;stroke-width:0.5;"/><path d="M851.5,92.4883 C846.5,92.4883 846.5,105.7324 846.5,105.7324 C846.5,118.9766 851.5,118.9766 851.5,118.9766 " fill="none" style="stroke:#181818;stroke-width:0.5;"/><text fill="#000000" font-family="sans-serif" font-size="14" lengthAdjust="spacing" textLength="42" x="799.5" y="111.0234">Pulsar</text><rect fill="#E2E2F0" height="30.4883" rx="2.5" ry="2.5" style="stroke:#181818;stroke-width:0.5;" width="172" x="988.5" y="87.4883"/><text fill="#000000" font-family="sans-serif" font-size="14" lengthAdjust="spacing" textLength="158" x="995.5" y="108.0234">consumer-user-emails</text><rect fill="#E2E2F0" height="30.4883" rx="2.5" ry="2.5" style="stroke:#181818;stroke-width:0.5;" width="134" x="1234.5" y="87.4883"/><text fill="#000000" font-family="sans-serif" font-size="14" lengthAdjust="spacing" textLength="120" x="1241.5" y="108.0234">toast-restaurants</text><rect fill="#E2E2F0" height="30.4883" rx="2.5" ry="2.5" style="stroke:#181818;stroke-width:0.5;" width="93" x="1378.5" y="87.4883"/><text fill="#000000" font-family="sans-serif" font-size="14" lengthAdjust="spacing" textLength="79" x="1385.5" y="108.0234">toast-users</text><rect fill="#E2E2F0" height="30.4883" rx="2.5" ry="2.5" style="stroke:#181818;stroke-width:0.5;" width="77" x="1481.5" y="87.4883"/><text fill="#000000" font-family="sans-serif" font-size="14" lengthAdjust="spacing" textLength="63" x="1488.5" y="108.0234">SendGrid</text><rect fill="#E2E2F0" height="30.4883" rx="2.5" ry="2.5" style="stroke:#181818;stroke-width:0.5;" width="140" x="1662" y="87.4883"/><text fill="#000000" font-family="sans-serif" font-size="14" lengthAdjust="spacing" textLength="126" x="1669" y="108.0234">Customer Mailbox</text><rect fill="#E2E2F0" height="30.4883" rx="2.5" ry="2.5" style="stroke:#181818;stroke-width:0.5;" width="81" x="1812" y="87.4883"/><text fill="#000000" font-family="sans-serif" font-size="14" lengthAdjust="spacing" textLength="67" x="1819" y="108.0234">ToastWeb</text><text fill="#000000" font-family="sans-serif" font-size="14" lengthAdjust="spacing" textLength="67" x="6.5" y="1190.5176">Customer</text><ellipse cx="43" cy="1125.4824" fill="#E2E2F0" rx="8" ry="8" style="stroke:#181818;stroke-width:0.5;"/><path d="M43,1133.4824 L43,1160.4824 M30,1141.4824 L56,1141.4824 M43,1160.4824 L30,1175.4824 M43,1160.4824 L56,1175.4824 " fill="none" style="stroke:#181818;stroke-width:0.5;"/><rect fill="#E2E2F0" height="30.4883" rx="2.5" ry="2.5" style="stroke:#181818;stroke-width:0.5;" width="79" x="153.5" y="1116.9824"/><text fill="#000000" font-family="sans-serif" font-size="14" lengthAdjust="spacing" textLength="65" x="160.5" y="1137.5176">DocuSign</text><rect fill="#E2E2F0" height="30.4883" rx="2.5" ry="2.5" style="stroke:#181818;stroke-width:0.5;" width="68" x="242.5" y="1116.9824"/><text fill="#000000" font-family="sans-serif" font-size="14" lengthAdjust="spacing" textLength="54" x="249.5" y="1137.5176">oat-spa</text><rect fill="#E2E2F0" height="30.4883" rx="2.5" ry="2.5" style="stroke:#181818;stroke-width:0.5;" width="84" x="320.5" y="1116.9824"/><text fill="#000000" font-family="sans-serif" font-size="14" lengthAdjust="spacing" textLength="70" x="327.5" y="1137.5176">Salesforce</text><rect fill="#E2E2F0" height="30.4883" rx="2.5" ry="2.5" style="stroke:#181818;stroke-width:0.5;" width="145" x="452" y="1116.9824"/><text fill="#000000" font-family="sans-serif" font-size="14" lengthAdjust="spacing" textLength="131" x="459" y="1137.5176">salesforce-sentinel</text><path d="M799.5,1116.9824 L851.5,1116.9824 C856.5,1116.9824 856.5,1130.2266 856.5,1130.2266 C856.5,1130.2266 856.5,1143.4707 851.5,1143.4707 L799.5,1143.4707 C794.5,1143.4707 794.5,1130.2266 794.5,1130.2266 C794.5,1130.2266 794.5,1116.9824 799.5,1116.9824 " fill="#E2E2F0" style="stroke:#181818;stroke-width:0.5;"/><path d="M851.5,1116.9824 C846.5,1116.9824 846.5,1130.2266 846.5,1130.2266 C846.5,1143.4707 851.5,1143.4707 851.5,1143.4707 " fill="none" style="stroke:#181818;stroke-width:0.5;"/><text fill="#000000" font-family="sans-serif" font-size="14" lengthAdjust="spacing" textLength="42" x="799.5" y="1135.5176">Pulsar</text><rect fill="#E2E2F0" height="30.4883" rx="2.5" ry="2.5" style="stroke:#181818;stroke-width:0.5;" width="172" x="988.5" y="1116.9824"/><text fill="#000000" font-family="sans-serif" font-size="14" lengthAdjust="spacing" textLength="158" x="995.5" y="1137.5176">consumer-user-emails</text><rect fill="#E2E2F0" height="30.4883" rx="2.5" ry="2.5" style="stroke:#181818;stroke-width:0.5;" width="134" x="1234.5" y="1116.9824"/><text fill="#000000" font-family="sans-serif" font-size="14" lengthAdjust="spacing" textLength="120" x="1241.5" y="1137.5176">toast-restaurants</text><rect fill="#E2E2F0" height="30.4883" rx="2.5" ry="2.5" style="stroke:#181818;stroke-width:0.5;" width="93" x="1378.5" y="1116.9824"/><text fill="#000000" font-family="sans-serif" font-size="14" lengthAdjust="spacing" textLength="79" x="1385.5" y="1137.5176">toast-users</text><rect fill="#E2E2F0" height="30.4883" rx="2.5" ry="2.5" style="stroke:#181818;stroke-width:0.5;" width="77" x="1481.5" y="1116.9824"/><text fill="#000000" font-family="sans-serif" font-size="14" lengthAdjust="spacing" textLength="63" x="1488.5" y="1137.5176">SendGrid</text><rect fill="#E2E2F0" height="30.4883" rx="2.5" ry="2.5" style="stroke:#181818;stroke-width:0.5;" width="140" x="1662" y="1116.9824"/><text fill="#000000" font-family="sans-serif" font-size="14" lengthAdjust="spacing" textLength="126" x="1669" y="1137.5176">Customer Mailbox</text><rect fill="#E2E2F0" height="30.4883" rx="2.5" ry="2.5" style="stroke:#181818;stroke-width:0.5;" width="81" x="1812" y="1116.9824"/><text fill="#000000" font-family="sans-serif" font-size="14" lengthAdjust="spacing" textLength="67" x="1819" y="1137.5176">ToastWeb</text><polygon fill="#181818" points="181,144.2871,191,148.2871,181,152.2871,185,148.2871" style="stroke:#181818;stroke-width:1.0;"/><line style="stroke:#181818;stroke-width:1.0;" x1="43" x2="187" y1="148.2871" y2="148.2871"/><text fill="#000000" font-family="sans-serif" font-size="13" lengthAdjust="spacing" textLength="92" x="50" y="143.5449">Complete TMA</text><path d="M158,160.2871 L385,160.2871 L385,167.5977 L375,177.5977 L158,177.5977 L158,160.2871 " fill="#EEEEEE" style="stroke:#000000;stroke-width:1.5;"/><rect fill="none" height="402.7266" style="stroke:#000000;stroke-width:1.5;" width="1735.5" x="158" y="160.2871"/><text fill="#000000" font-family="sans-serif" font-size="13" font-weight="bold" lengthAdjust="spacing" textLength="182" x="173" y="173.8555">Account activation prereqs</text><path d="M177,191.5977 L430,191.5977 L430,198.9082 L420,208.9082 L177,208.9082 L177,191.5977 " fill="#EEEEEE" style="stroke:#000000;stroke-width:1.5;"/><rect fill="none" height="85.9316" style="stroke:#000000;stroke-width:1.5;" width="363.5" x="177" y="191.5977"/><text fill="#000000" font-family="sans-serif" font-size="13" font-weight="bold" lengthAdjust="spacing" textLength="208" x="192" y="205.166">Stage automation (details TBD)</text><polygon fill="#181818" points="350.5,236.2188,360.5,240.2188,350.5,244.2188,354.5,240.2188" style="stroke:#181818;stroke-width:1.0;"/><line style="stroke:#181818;stroke-width:1.0;" x1="193" x2="356.5" y1="240.2188" y2="240.2188"/><text fill="#000000" font-family="sans-serif" font-size="13" lengthAdjust="spacing" textLength="138" x="200" y="235.4766">Move Opp to Stage 11</text><polygon fill="#181818" points="512.5,265.5293,522.5,269.5293,512.5,273.5293,516.5,269.5293" style="stroke:#181818;stroke-width:1.0;"/><line style="stroke:#181818;stroke-width:1.0;" x1="362.5" x2="518.5" y1="269.5293" y2="269.5293"/><text fill="#000000" font-family="sans-serif" font-size="13" lengthAdjust="spacing" textLength="138" x="369.5" y="264.7871">Move Opp to Stage 11</text><path d="M508.5,295.5293 L763.5,295.5293 L763.5,302.8398 L753.5,312.8398 L508.5,312.8398 L508.5,295.5293 " fill="#EEEEEE" style="stroke:#000000;stroke-width:1.5;"/><rect fill="none" height="165.8633" style="stroke:#000000;stroke-width:1.5;" width="1360" x="508.5" y="295.5293"/><text fill="#000000" font-family="sans-serif" font-size="13" font-weight="bold" lengthAdjust="spacing" textLength="210" x="523.5" y="309.0977">Restaurant create (details TBD)</text><path d="M529.5,327.8398 L529.5,367.8398 L936.5,367.8398 L936.5,337.8398 L926.5,327.8398 L529.5,327.8398 " fill="#FEFFDD" style="stroke:#181818;stroke-width:0.5;"/><path d="M926.5,327.8398 L926.5,337.8398 L936.5,337.8398 L926.5,327.8398 " fill="#FEFFDD" style="stroke:#181818;stroke-width:0.5;"/><text fill="#000000" font-family="sans-serif" font-size="13" lengthAdjust="spacing" textLength="94" x="535.5" y="345.4082">more details at</text><text fill="#000000" font-family="sans-serif" font-size="13" lengthAdjust="spacing" textLength="386" x="535.5" y="360.7188">system-docs/platform/business-platform/restaurant-create</text><polygon fill="#181818" points="1289.5,390.7715,1299.5,394.7715,1289.5,398.7715,1293.5,394.7715" style="stroke:#181818;stroke-width:1.0;"/><line style="stroke:#181818;stroke-width:1.0;" x1="524.5" x2="1295.5" y1="394.7715" y2="394.7715"/><text fill="#000000" font-family="sans-serif" font-size="13" lengthAdjust="spacing" textLength="108" x="531.5" y="390.0293">Create restaurant</text><polygon fill="#181818" points="1840.5,420.082,1850.5,424.082,1840.5,428.082,1844.5,424.082" style="stroke:#181818;stroke-width:1.0;"/><line style="stroke:#181818;stroke-width:1.0;" x1="1301.5" x2="1846.5" y1="424.082" y2="424.082"/><text fill="#000000" font-family="sans-serif" font-size="13" lengthAdjust="spacing" textLength="108" x="1308.5" y="419.3398">Create restaurant</text><line style="stroke:#181818;stroke-width:1.0;" x1="826.5" x2="836.5" y1="453.3926" y2="449.3926"/><line style="stroke:#181818;stroke-width:1.0;" x1="826.5" x2="836.5" y1="453.3926" y2="457.3926"/><line style="stroke:#181818;stroke-width:1.0;" x1="825.5" x2="1851.5" y1="453.3926" y2="453.3926"/><text fill="#000000" font-family="sans-serif" font-size="13" lengthAdjust="spacing" textLength="198" x="842.5" y="448.6504">Emit RestaurantCreate message</text><path d="M508.5,479.3926 L720.5,479.3926 L720.5,486.7031 L710.5,496.7031 L508.5,496.7031 L508.5,479.3926 " fill="#EEEEEE" style="stroke:#000000;stroke-width:1.5;"/><rect fill="none" height="69.6211" style="stroke:#000000;stroke-width:1.5;" width="228" x="508.5" y="479.3926"/><text fill="#000000" font-family="sans-serif" font-size="13" font-weight="bold" lengthAdjust="spacing" textLength="167" x="523.5" y="492.9609">User create (details TBD)</text><line style="stroke:#181818;stroke-width:1.0;" x1="524.5" x2="566.5" y1="528.0137" y2="528.0137"/><line style="stroke:#181818;stroke-width:1.0;" x1="566.5" x2="566.5" y1="528.0137" y2="541.0137"/><line style="stroke:#181818;stroke-width:1.0;" x1="525.5" x2="566.5" y1="541.0137" y2="541.0137"/><polygon fill="#181818" points="535.5,537.0137,525.5,541.0137,535.5,545.0137,531.5,541.0137" style="stroke:#181818;stroke-width:1.0;"/><text fill="#000000" font-family="sans-serif" font-size="13" lengthAdjust="spacing" textLength="25" x="531.5" y="523.2715">TBD</text><path d="M8,581.0137 L76,581.0137 L76,588.3242 L66,598.3242 L8,598.3242 L8,581.0137 " fill="#EEEEEE" style="stroke:#000000;stroke-width:1.5;"/><rect fill="none" height="511.9688" style="stroke:#000000;stroke-width:1.5;" width="1885.5" x="8" y="581.0137"/><text fill="#000000" font-family="sans-serif" font-size="13" font-weight="bold" lengthAdjust="spacing" textLength="23" x="23" y="594.582">par</text><path d="M27,612.3242 L272,612.3242 L272,619.6348 L262,629.6348 L27,629.6348 L27,612.3242 " fill="#EEEEEE" style="stroke:#000000;stroke-width:1.5;"/><rect fill="none" height="203.1738" style="stroke:#000000;stroke-width:1.5;" width="1841.5" x="27" y="612.3242"/><text fill="#000000" font-family="sans-serif" font-size="13" font-weight="bold" lengthAdjust="spacing" textLength="200" x="42" y="625.8926">Redirect to account activation</text><polygon fill="#181818" points="54,656.9453,44,660.9453,54,664.9453,50,660.9453" style="stroke:#181818;stroke-width:1.0;"/><line style="stroke:#181818;stroke-width:1.0;" x1="48" x2="192" y1="660.9453" y2="660.9453"/><text fill="#000000" font-family="sans-serif" font-size="13" lengthAdjust="spacing" textLength="126" x="60" y="656.2031">Redirect to OAT SPA</text><polygon fill="#181818" points="264.5,686.2559,274.5,690.2559,264.5,694.2559,268.5,690.2559" style="stroke:#181818;stroke-width:1.0;"/><line style="stroke:#181818;stroke-width:1.0;" x1="43" x2="270.5" y1="690.2559" y2="690.2559"/><text fill="#000000" font-family="sans-serif" font-size="13" lengthAdjust="spacing" textLength="137" x="50" y="685.5137">Intermediate OAT SPA</text><polygon fill="#181818" points="1413,715.5664,1423,719.5664,1413,723.5664,1417,719.5664" style="stroke:#181818;stroke-width:1.0;"/><line style="stroke:#181818;stroke-width:1.0;" x1="276.5" x2="1419" y1="719.5664" y2="719.5664"/><text fill="#000000" font-family="sans-serif" font-size="13" lengthAdjust="spacing" textLength="148" x="283.5" y="714.8242">GET /api/activation-url</text><polygon fill="#181818" points="287.5,744.877,277.5,748.877,287.5,752.877,283.5,748.877" style="stroke:#181818;stroke-width:1.0;"/><line style="stroke:#181818;stroke-width:1.0;" x1="281.5" x2="1424" y1="748.877" y2="748.877"/><text fill="#000000" font-family="sans-serif" font-size="13" lengthAdjust="spacing" textLength="193" x="293.5" y="744.1348">Return Account Activation URL</text><polygon fill="#181818" points="54,774.1875,44,778.1875,54,782.1875,50,778.1875" style="stroke:#181818;stroke-width:1.0;"/><line style="stroke:#181818;stroke-width:1.0;" x1="48" x2="275.5" y1="778.1875" y2="778.1875"/><text fill="#000000" font-family="sans-serif" font-size="13" lengthAdjust="spacing" textLength="192" x="60" y="773.4453">Redirect to Account Activation</text><polygon fill="#181818" points="1840.5,803.498,1850.5,807.498,1840.5,811.498,1844.5,807.498" style="stroke:#181818;stroke-width:1.0;"/><line style="stroke:#181818;stroke-width:1.0;" x1="43" x2="1846.5" y1="807.498" y2="807.498"/><text fill="#000000" font-family="sans-serif" font-size="13" lengthAdjust="spacing" textLength="136" x="50" y="802.7559">Activate user account</text><path d="M27,833.498 L284,833.498 L284,840.8086 L274,850.8086 L27,850.8086 L27,833.498 " fill="#EEEEEE" style="stroke:#000000;stroke-width:1.5;"/><rect fill="none" height="245.4844" style="stroke:#000000;stroke-width:1.5;" width="1841.5" x="27" y="833.498"/><text fill="#000000" font-family="sans-serif" font-size="13" font-weight="bold" lengthAdjust="spacing" textLength="212" x="42" y="847.0664">Account activiation initial email</text><line style="stroke:#181818;stroke-width:1.0;" x1="823.5" x2="813.5" y1="882.1191" y2="878.1191"/><line style="stroke:#181818;stroke-width:1.0;" x1="823.5" x2="813.5" y1="882.1191" y2="886.1191"/><line style="stroke:#181818;stroke-width:1.0;" x1="524.5" x2="824.5" y1="882.1191" y2="882.1191"/><text fill="#000000" font-family="sans-serif" font-size="13" lengthAdjust="spacing" textLength="277" x="531.5" y="877.377">Emit InviteEmailEvent message (details TBD)</text><line style="stroke:#181818;stroke-width:1.0;" x1="1072.5" x2="1062.5" y1="911.4297" y2="907.4297"/><line style="stroke:#181818;stroke-width:1.0;" x1="1072.5" x2="1062.5" y1="911.4297" y2="915.4297"/><line style="stroke:#181818;stroke-width:1.0;" x1="825.5" x2="1073.5" y1="911.4297" y2="911.4297"/><text fill="#000000" font-family="sans-serif" font-size="13" lengthAdjust="spacing" textLength="225" x="832.5" y="906.6875">Consume InviteEmailEvent message</text><line style="stroke:#181818;stroke-width:1.0;" x1="1074.5" x2="1116.5" y1="940.7402" y2="940.7402"/><line style="stroke:#181818;stroke-width:1.0;" x1="1116.5" x2="1116.5" y1="940.7402" y2="953.7402"/><line style="stroke:#181818;stroke-width:1.0;" x1="1075.5" x2="1116.5" y1="953.7402" y2="953.7402"/><polygon fill="#181818" points="1085.5,949.7402,1075.5,953.7402,1085.5,957.7402,1081.5,953.7402" style="stroke:#181818;stroke-width:1.0;"/><text fill="#000000" font-family="sans-serif" font-size="13" lengthAdjust="spacing" textLength="213" x="1081.5" y="935.998">Generate account activation email</text><polygon fill="#181818" points="1508,979.0508,1518,983.0508,1508,987.0508,1512,983.0508" style="stroke:#181818;stroke-width:1.0;"/><line style="stroke:#181818;stroke-width:1.0;" x1="1074.5" x2="1514" y1="983.0508" y2="983.0508"/><text fill="#000000" font-family="sans-serif" font-size="13" lengthAdjust="spacing" textLength="188" x="1081.5" y="978.3086">Send account activation email</text><polygon fill="#181818" points="1720,1008.3613,1730,1012.3613,1720,1016.3613,1724,1012.3613" style="stroke:#181818;stroke-width:1.0;"/><line style="stroke:#181818;stroke-width:1.0;" x1="1520" x2="1726" y1="1012.3613" y2="1012.3613"/><text fill="#000000" font-family="sans-serif" font-size="13" lengthAdjust="spacing" textLength="188" x="1527" y="1007.6191">Send account activation email</text><polygon fill="#181818" points="1720,1037.6719,1730,1041.6719,1720,1045.6719,1724,1041.6719" style="stroke:#181818;stroke-width:1.0;"/><line style="stroke:#181818;stroke-width:1.0;" x1="43" x2="1726" y1="1041.6719" y2="1041.6719"/><text fill="#000000" font-family="sans-serif" font-size="13" lengthAdjust="spacing" textLength="188" x="50" y="1036.9297">Read account activation email</text><polygon fill="#181818" points="1840.5,1066.9824,1850.5,1070.9824,1840.5,1074.9824,1844.5,1070.9824" style="stroke:#181818;stroke-width:1.0;"/><line style="stroke:#181818;stroke-width:1.0;" x1="43" x2="1846.5" y1="1070.9824" y2="1070.9824"/><text fill="#000000" font-family="sans-serif" font-size="13" lengthAdjust="spacing" textLength="136" x="50" y="1066.2402">Activate user account</text><line style="stroke:#181818;stroke-width:1.0;" x1="138.875" x2="138.875" y1="150.2871" y2="776.1875"/><polygon fill="#181818" points="134.875,160.2871,138.875,150.2871,142.875,160.2871,138.875,156.2871" style="stroke:#181818;stroke-width:1.0;"/><polygon fill="#181818" points="134.875,766.1875,138.875,776.1875,142.875,766.1875,138.875,770.1875" style="stroke:#181818;stroke-width:1.0;"/><text fill="#000000" font-family="sans-serif" font-size="13" lengthAdjust="spacing" textLength="189" x="142.875" y="468.1504">SLA TBD but must be good UX</text><!--SRC=[ZLHDRzim33rRluBjgJqOGQ_1K21hWw90YnP9Yksgs8mdmBPKYKgo5VtleoGxtq5xiGNoKNnyf7XXhAmQ2OJw7v3rA2wEB88KrGYZej2-9VwJMafIkeKfldji2uHx9Iih6xWoLXlji0GdQtImgFNgMWXPaBPmUUSTwGRj9KW7nLeOQKaLoaY-zV9U5twggZOwIxVlr99oPsJqyPcF-_vfoBRGji08SOjzjzkuSuSjgHRh3kS4L-0HNdtjf0qsSv2wqAtpJ3htZZ_OI5MxL01BiuSaBHtb5Xr9RzcIO7Pz2XKkI_vuEgW6s_B1gZ9nhFQTlOZmp4pcUjs9sV1n7pWBYNxXF09e9SG74xFqoM38RrdY8TpfnjH82BFdaH2LrTvisYotRJOMBRux8R84cPAi4AHd7WbmLI85NM3sy_vQP5dfGWQt6CApNYAy60Eakx2R6mQuHGAuSmXM06AoJTB9HbSeB4ecVPYrrMoqglf3iR5PbZNQ8lGeIS7a_Zh29YzruGQcbiHJqGpctl5CE9TlBDikvYaRnmPE8KVa7okqQzOmaTa6iDj6XMbrsaihzjxoe0rXt2ZQgQn3Dqo5XJYbmXjFoxdwEr9HLJRjXUySUKZwNa-mL1OB2jhBexwBhey5LxcBV1dDOFew4baQfFGUX_3O4jg6SO7R1fEy0HS7VGWFunaCf563RQBSsrfaqRzxuGJ9s_RKtdcRF8diWslwXEtzXpIFurZ5_Wtyu81qmH2cJwEW5ymzGSEl2-O8bTOblFqMVP6Xbzr562lfzTfLziG3KecmQXKfMKDS7wBhrCu8FBPBHJWEtl6IDrG_0eSzDYcELqzul74ndOrbwhpOyWxzW2tQGFwuppsh3kugbYHKTHxfgYHuM3fVWfE0FNY2yclmjzGEnp3B_m40]--></g></svg>