<?xml version="1.0" encoding="UTF-8" standalone="no"?><svg xmlns="http://www.w3.org/2000/svg" xmlns:xlink="http://www.w3.org/1999/xlink" contentStyleType="text/css" height="932px" preserveAspectRatio="none" style="width:1856px;height:932px;background:#FFFFFF;" version="1.1" viewBox="0 0 1856 932" width="1856px" zoomAndPan="magnify"><defs/><g><text fill="#000000" font-family="sans-serif" font-size="14" font-weight="bold" lengthAdjust="spacing" textLength="417" x="723.25" y="28.5352">Account Activation Sequence Diagram (current sales flow)</text><line style="stroke:#181818;stroke-width:0.5;stroke-dasharray:5.0,5.0;" x1="41.5" x2="41.5" y1="118.9766" y2="850.498"/><line style="stroke:#181818;stroke-width:0.5;stroke-dasharray:5.0,5.0;" x1="157.5" x2="157.5" y1="118.9766" y2="850.498"/><line style="stroke:#181818;stroke-width:0.5;stroke-dasharray:5.0,5.0;" x1="319.5" x2="319.5" y1="118.9766" y2="850.498"/><line style="stroke:#181818;stroke-width:0.5;stroke-dasharray:5.0,5.0;" x1="481.5" x2="481.5" y1="118.9766" y2="850.498"/><line style="stroke:#181818;stroke-width:0.5;stroke-dasharray:5.0,5.0;" x1="782.5" x2="782.5" y1="118.9766" y2="850.498"/><line style="stroke:#181818;stroke-width:0.5;stroke-dasharray:5.0,5.0;" x1="1031.5" x2="1031.5" y1="118.9766" y2="850.498"/><line style="stroke:#181818;stroke-width:0.5;stroke-dasharray:5.0,5.0;" x1="1258.5" x2="1258.5" y1="118.9766" y2="850.498"/><line style="stroke:#181818;stroke-width:0.5;stroke-dasharray:5.0,5.0;" x1="1382" x2="1382" y1="118.9766" y2="850.498"/><line style="stroke:#181818;stroke-width:0.5;stroke-dasharray:5.0,5.0;" x1="1477" x2="1477" y1="118.9766" y2="850.498"/><line style="stroke:#181818;stroke-width:0.5;stroke-dasharray:5.0,5.0;" x1="1689" x2="1689" y1="118.9766" y2="850.498"/><line style="stroke:#181818;stroke-width:0.5;stroke-dasharray:5.0,5.0;" x1="1809.5" x2="1809.5" y1="118.9766" y2="850.498"/><text fill="#000000" font-family="sans-serif" font-size="14" lengthAdjust="spacing" textLength="67" x="5" y="116.0234">Customer</text><ellipse cx="41.5" cy="50.9883" fill="#E2E2F0" rx="8" ry="8" style="stroke:#181818;stroke-width:0.5;"/><path d="M41.5,58.9883 L41.5,85.9883 M28.5,66.9883 L54.5,66.9883 M41.5,85.9883 L28.5,100.9883 M41.5,85.9883 L54.5,100.9883 " fill="none" style="stroke:#181818;stroke-width:0.5;"/><rect fill="#E2E2F0" height="30.4883" rx="2.5" ry="2.5" style="stroke:#181818;stroke-width:0.5;" width="79" x="118" y="87.4883"/><text fill="#000000" font-family="sans-serif" font-size="14" lengthAdjust="spacing" textLength="65" x="125" y="108.0234">DocuSign</text><rect fill="#E2E2F0" height="30.4883" rx="2.5" ry="2.5" style="stroke:#181818;stroke-width:0.5;" width="84" x="277.5" y="87.4883"/><text fill="#000000" font-family="sans-serif" font-size="14" lengthAdjust="spacing" textLength="70" x="284.5" y="108.0234">Salesforce</text><rect fill="#E2E2F0" height="30.4883" rx="2.5" ry="2.5" style="stroke:#181818;stroke-width:0.5;" width="145" x="409" y="87.4883"/><text fill="#000000" font-family="sans-serif" font-size="14" lengthAdjust="spacing" textLength="131" x="416" y="108.0234">salesforce-sentinel</text><path d="M756.5,92.4883 L808.5,92.4883 C813.5,92.4883 813.5,105.7324 813.5,105.7324 C813.5,105.7324 813.5,118.9766 808.5,118.9766 L756.5,118.9766 C751.5,118.9766 751.5,105.7324 751.5,105.7324 C751.5,105.7324 751.5,92.4883 756.5,92.4883 " fill="#E2E2F0" style="stroke:#181818;stroke-width:0.5;"/><path d="M808.5,92.4883 C803.5,92.4883 803.5,105.7324 803.5,105.7324 C803.5,118.9766 808.5,118.9766 808.5,118.9766 " fill="none" style="stroke:#181818;stroke-width:0.5;"/><text fill="#000000" font-family="sans-serif" font-size="14" lengthAdjust="spacing" textLength="42" x="756.5" y="111.0234">Pulsar</text><rect fill="#E2E2F0" height="30.4883" rx="2.5" ry="2.5" style="stroke:#181818;stroke-width:0.5;" width="172" x="945.5" y="87.4883"/><text fill="#000000" font-family="sans-serif" font-size="14" lengthAdjust="spacing" textLength="158" x="952.5" y="108.0234">consumer-user-emails</text><rect fill="#E2E2F0" height="30.4883" rx="2.5" ry="2.5" style="stroke:#181818;stroke-width:0.5;" width="134" x="1191.5" y="87.4883"/><text fill="#000000" font-family="sans-serif" font-size="14" lengthAdjust="spacing" textLength="120" x="1198.5" y="108.0234">toast-restaurants</text><rect fill="#E2E2F0" height="30.4883" rx="2.5" ry="2.5" style="stroke:#181818;stroke-width:0.5;" width="93" x="1335.5" y="87.4883"/><text fill="#000000" font-family="sans-serif" font-size="14" lengthAdjust="spacing" textLength="79" x="1342.5" y="108.0234">toast-users</text><rect fill="#E2E2F0" height="30.4883" rx="2.5" ry="2.5" style="stroke:#181818;stroke-width:0.5;" width="77" x="1438.5" y="87.4883"/><text fill="#000000" font-family="sans-serif" font-size="14" lengthAdjust="spacing" textLength="63" x="1445.5" y="108.0234">SendGrid</text><rect fill="#E2E2F0" height="30.4883" rx="2.5" ry="2.5" style="stroke:#181818;stroke-width:0.5;" width="140" x="1619" y="87.4883"/><text fill="#000000" font-family="sans-serif" font-size="14" lengthAdjust="spacing" textLength="126" x="1626" y="108.0234">Customer Mailbox</text><rect fill="#E2E2F0" height="30.4883" rx="2.5" ry="2.5" style="stroke:#181818;stroke-width:0.5;" width="81" x="1769" y="87.4883"/><text fill="#000000" font-family="sans-serif" font-size="14" lengthAdjust="spacing" textLength="67" x="1776" y="108.0234">ToastWeb</text><text fill="#000000" font-family="sans-serif" font-size="14" lengthAdjust="spacing" textLength="67" x="5" y="924.0332">Customer</text><ellipse cx="41.5" cy="858.998" fill="#E2E2F0" rx="8" ry="8" style="stroke:#181818;stroke-width:0.5;"/><path d="M41.5,866.998 L41.5,893.998 M28.5,874.998 L54.5,874.998 M41.5,893.998 L28.5,908.998 M41.5,893.998 L54.5,908.998 " fill="none" style="stroke:#181818;stroke-width:0.5;"/><rect fill="#E2E2F0" height="30.4883" rx="2.5" ry="2.5" style="stroke:#181818;stroke-width:0.5;" width="79" x="118" y="850.498"/><text fill="#000000" font-family="sans-serif" font-size="14" lengthAdjust="spacing" textLength="65" x="125" y="871.0332">DocuSign</text><rect fill="#E2E2F0" height="30.4883" rx="2.5" ry="2.5" style="stroke:#181818;stroke-width:0.5;" width="84" x="277.5" y="850.498"/><text fill="#000000" font-family="sans-serif" font-size="14" lengthAdjust="spacing" textLength="70" x="284.5" y="871.0332">Salesforce</text><rect fill="#E2E2F0" height="30.4883" rx="2.5" ry="2.5" style="stroke:#181818;stroke-width:0.5;" width="145" x="409" y="850.498"/><text fill="#000000" font-family="sans-serif" font-size="14" lengthAdjust="spacing" textLength="131" x="416" y="871.0332">salesforce-sentinel</text><path d="M756.5,850.498 L808.5,850.498 C813.5,850.498 813.5,863.7422 813.5,863.7422 C813.5,863.7422 813.5,876.9863 808.5,876.9863 L756.5,876.9863 C751.5,876.9863 751.5,863.7422 751.5,863.7422 C751.5,863.7422 751.5,850.498 756.5,850.498 " fill="#E2E2F0" style="stroke:#181818;stroke-width:0.5;"/><path d="M808.5,850.498 C803.5,850.498 803.5,863.7422 803.5,863.7422 C803.5,876.9863 808.5,876.9863 808.5,876.9863 " fill="none" style="stroke:#181818;stroke-width:0.5;"/><text fill="#000000" font-family="sans-serif" font-size="14" lengthAdjust="spacing" textLength="42" x="756.5" y="869.0332">Pulsar</text><rect fill="#E2E2F0" height="30.4883" rx="2.5" ry="2.5" style="stroke:#181818;stroke-width:0.5;" width="172" x="945.5" y="850.498"/><text fill="#000000" font-family="sans-serif" font-size="14" lengthAdjust="spacing" textLength="158" x="952.5" y="871.0332">consumer-user-emails</text><rect fill="#E2E2F0" height="30.4883" rx="2.5" ry="2.5" style="stroke:#181818;stroke-width:0.5;" width="134" x="1191.5" y="850.498"/><text fill="#000000" font-family="sans-serif" font-size="14" lengthAdjust="spacing" textLength="120" x="1198.5" y="871.0332">toast-restaurants</text><rect fill="#E2E2F0" height="30.4883" rx="2.5" ry="2.5" style="stroke:#181818;stroke-width:0.5;" width="93" x="1335.5" y="850.498"/><text fill="#000000" font-family="sans-serif" font-size="14" lengthAdjust="spacing" textLength="79" x="1342.5" y="871.0332">toast-users</text><rect fill="#E2E2F0" height="30.4883" rx="2.5" ry="2.5" style="stroke:#181818;stroke-width:0.5;" width="77" x="1438.5" y="850.498"/><text fill="#000000" font-family="sans-serif" font-size="14" lengthAdjust="spacing" textLength="63" x="1445.5" y="871.0332">SendGrid</text><rect fill="#E2E2F0" height="30.4883" rx="2.5" ry="2.5" style="stroke:#181818;stroke-width:0.5;" width="140" x="1619" y="850.498"/><text fill="#000000" font-family="sans-serif" font-size="14" lengthAdjust="spacing" textLength="126" x="1626" y="871.0332">Customer Mailbox</text><rect fill="#E2E2F0" height="30.4883" rx="2.5" ry="2.5" style="stroke:#181818;stroke-width:0.5;" width="81" x="1769" y="850.498"/><text fill="#000000" font-family="sans-serif" font-size="14" lengthAdjust="spacing" textLength="67" x="1776" y="871.0332">ToastWeb</text><line style="stroke:#181818;stroke-width:1.0;" x1="155.5" x2="145.5" y1="148.2871" y2="144.2871"/><line style="stroke:#181818;stroke-width:1.0;" x1="155.5" x2="145.5" y1="148.2871" y2="152.2871"/><line style="stroke:#181818;stroke-width:1.0;" x1="41.5" x2="156.5" y1="148.2871" y2="148.2871"/><text fill="#000000" font-family="sans-serif" font-size="13" lengthAdjust="spacing" textLength="92" x="48.5" y="143.5449">Complete TMA</text><path d="M141.5,160.2871 L394.5,160.2871 L394.5,167.5977 L384.5,177.5977 L141.5,177.5977 L141.5,160.2871 " fill="#EEEEEE" style="stroke:#000000;stroke-width:1.5;"/><rect fill="none" height="85.9316" style="stroke:#000000;stroke-width:1.5;" width="356" x="141.5" y="160.2871"/><text fill="#000000" font-family="sans-serif" font-size="13" font-weight="bold" lengthAdjust="spacing" textLength="208" x="156.5" y="173.8555">Stage automation (details TBD)</text><polygon fill="#181818" points="307.5,204.9082,317.5,208.9082,307.5,212.9082,311.5,208.9082" style="stroke:#181818;stroke-width:1.0;"/><line style="stroke:#181818;stroke-width:1.0;" x1="157.5" x2="313.5" y1="208.9082" y2="208.9082"/><text fill="#000000" font-family="sans-serif" font-size="13" lengthAdjust="spacing" textLength="138" x="164.5" y="204.166">Move Opp to Stage 11</text><polygon fill="#181818" points="469.5,234.2188,479.5,238.2188,469.5,242.2188,473.5,238.2188" style="stroke:#181818;stroke-width:1.0;"/><line style="stroke:#181818;stroke-width:1.0;" x1="319.5" x2="475.5" y1="238.2188" y2="238.2188"/><text fill="#000000" font-family="sans-serif" font-size="13" lengthAdjust="spacing" textLength="138" x="326.5" y="233.4766">Move Opp to Stage 11</text><path d="M446.5,264.2188 L673.5,264.2188 L673.5,271.5293 L663.5,281.5293 L446.5,281.5293 L446.5,264.2188 " fill="#EEEEEE" style="stroke:#000000;stroke-width:1.5;"/><rect fill="none" height="298.7949" style="stroke:#000000;stroke-width:1.5;" width="1404" x="446.5" y="264.2188"/><text fill="#000000" font-family="sans-serif" font-size="13" font-weight="bold" lengthAdjust="spacing" textLength="182" x="461.5" y="277.7871">Account activation prereqs</text><path d="M465.5,295.5293 L720.5,295.5293 L720.5,302.8398 L710.5,312.8398 L465.5,312.8398 L465.5,295.5293 " fill="#EEEEEE" style="stroke:#000000;stroke-width:1.5;"/><rect fill="none" height="165.8633" style="stroke:#000000;stroke-width:1.5;" width="1360" x="465.5" y="295.5293"/><text fill="#000000" font-family="sans-serif" font-size="13" font-weight="bold" lengthAdjust="spacing" textLength="210" x="480.5" y="309.0977">Restaurant create (details TBD)</text><path d="M486.5,327.8398 L486.5,367.8398 L893.5,367.8398 L893.5,337.8398 L883.5,327.8398 L486.5,327.8398 " fill="#FEFFDD" style="stroke:#181818;stroke-width:0.5;"/><path d="M883.5,327.8398 L883.5,337.8398 L893.5,337.8398 L883.5,327.8398 " fill="#FEFFDD" style="stroke:#181818;stroke-width:0.5;"/><text fill="#000000" font-family="sans-serif" font-size="13" lengthAdjust="spacing" textLength="94" x="492.5" y="345.4082">more details at</text><text fill="#000000" font-family="sans-serif" font-size="13" lengthAdjust="spacing" textLength="386" x="492.5" y="360.7188">system-docs/platform/business-platform/restaurant-create</text><polygon fill="#181818" points="1246.5,390.7715,1256.5,394.7715,1246.5,398.7715,1250.5,394.7715" style="stroke:#181818;stroke-width:1.0;"/><line style="stroke:#181818;stroke-width:1.0;" x1="481.5" x2="1252.5" y1="394.7715" y2="394.7715"/><text fill="#000000" font-family="sans-serif" font-size="13" lengthAdjust="spacing" textLength="108" x="488.5" y="390.0293">Create restaurant</text><polygon fill="#181818" points="1797.5,420.082,1807.5,424.082,1797.5,428.082,1801.5,424.082" style="stroke:#181818;stroke-width:1.0;"/><line style="stroke:#181818;stroke-width:1.0;" x1="1258.5" x2="1803.5" y1="424.082" y2="424.082"/><text fill="#000000" font-family="sans-serif" font-size="13" lengthAdjust="spacing" textLength="108" x="1265.5" y="419.3398">Create restaurant</text><line style="stroke:#181818;stroke-width:1.0;" x1="783.5" x2="793.5" y1="453.3926" y2="449.3926"/><line style="stroke:#181818;stroke-width:1.0;" x1="783.5" x2="793.5" y1="453.3926" y2="457.3926"/><line style="stroke:#181818;stroke-width:1.0;" x1="782.5" x2="1808.5" y1="453.3926" y2="453.3926"/><text fill="#000000" font-family="sans-serif" font-size="13" lengthAdjust="spacing" textLength="198" x="799.5" y="448.6504">Emit RestaurantCreate message</text><path d="M465.5,479.3926 L677.5,479.3926 L677.5,486.7031 L667.5,496.7031 L465.5,496.7031 L465.5,479.3926 " fill="#EEEEEE" style="stroke:#000000;stroke-width:1.5;"/><rect fill="none" height="69.6211" style="stroke:#000000;stroke-width:1.5;" width="228" x="465.5" y="479.3926"/><text fill="#000000" font-family="sans-serif" font-size="13" font-weight="bold" lengthAdjust="spacing" textLength="167" x="480.5" y="492.9609">User create (details TBD)</text><line style="stroke:#181818;stroke-width:1.0;" x1="481.5" x2="523.5" y1="528.0137" y2="528.0137"/><line style="stroke:#181818;stroke-width:1.0;" x1="523.5" x2="523.5" y1="528.0137" y2="541.0137"/><line style="stroke:#181818;stroke-width:1.0;" x1="482.5" x2="523.5" y1="541.0137" y2="541.0137"/><polygon fill="#181818" points="492.5,537.0137,482.5,541.0137,492.5,545.0137,488.5,541.0137" style="stroke:#181818;stroke-width:1.0;"/><text fill="#000000" font-family="sans-serif" font-size="13" lengthAdjust="spacing" textLength="25" x="488.5" y="523.2715">TBD</text><path d="M465.5,581.0137 L722.5,581.0137 L722.5,588.3242 L712.5,598.3242 L465.5,598.3242 L465.5,581.0137 " fill="#EEEEEE" style="stroke:#000000;stroke-width:1.5;"/><rect fill="none" height="186.8633" style="stroke:#000000;stroke-width:1.5;" width="1239.5" x="465.5" y="581.0137"/><text fill="#000000" font-family="sans-serif" font-size="13" font-weight="bold" lengthAdjust="spacing" textLength="212" x="480.5" y="594.582">Account activiation initial email</text><line style="stroke:#181818;stroke-width:1.0;" x1="780.5" x2="770.5" y1="629.6348" y2="625.6348"/><line style="stroke:#181818;stroke-width:1.0;" x1="780.5" x2="770.5" y1="629.6348" y2="633.6348"/><line style="stroke:#181818;stroke-width:1.0;" x1="481.5" x2="781.5" y1="629.6348" y2="629.6348"/><text fill="#000000" font-family="sans-serif" font-size="13" lengthAdjust="spacing" textLength="277" x="488.5" y="624.8926">Emit InviteEmailEvent message (details TBD)</text><line style="stroke:#181818;stroke-width:1.0;" x1="1029.5" x2="1019.5" y1="658.9453" y2="654.9453"/><line style="stroke:#181818;stroke-width:1.0;" x1="1029.5" x2="1019.5" y1="658.9453" y2="662.9453"/><line style="stroke:#181818;stroke-width:1.0;" x1="782.5" x2="1030.5" y1="658.9453" y2="658.9453"/><text fill="#000000" font-family="sans-serif" font-size="13" lengthAdjust="spacing" textLength="225" x="789.5" y="654.2031">Consume InviteEmailEvent message</text><line style="stroke:#181818;stroke-width:1.0;" x1="1031.5" x2="1073.5" y1="688.2559" y2="688.2559"/><line style="stroke:#181818;stroke-width:1.0;" x1="1073.5" x2="1073.5" y1="688.2559" y2="701.2559"/><line style="stroke:#181818;stroke-width:1.0;" x1="1032.5" x2="1073.5" y1="701.2559" y2="701.2559"/><polygon fill="#181818" points="1042.5,697.2559,1032.5,701.2559,1042.5,705.2559,1038.5,701.2559" style="stroke:#181818;stroke-width:1.0;"/><text fill="#000000" font-family="sans-serif" font-size="13" lengthAdjust="spacing" textLength="213" x="1038.5" y="683.5137">Generate account activation email</text><polygon fill="#181818" points="1465,726.5664,1475,730.5664,1465,734.5664,1469,730.5664" style="stroke:#181818;stroke-width:1.0;"/><line style="stroke:#181818;stroke-width:1.0;" x1="1031.5" x2="1471" y1="730.5664" y2="730.5664"/><text fill="#000000" font-family="sans-serif" font-size="13" lengthAdjust="spacing" textLength="188" x="1038.5" y="725.8242">Send account activation email</text><polygon fill="#181818" points="1677,755.877,1687,759.877,1677,763.877,1681,759.877" style="stroke:#181818;stroke-width:1.0;"/><line style="stroke:#181818;stroke-width:1.0;" x1="1477" x2="1683" y1="759.877" y2="759.877"/><text fill="#000000" font-family="sans-serif" font-size="13" lengthAdjust="spacing" textLength="188" x="1484" y="755.1348">Send account activation email</text><polygon fill="#181818" points="1677,799.1875,1687,803.1875,1677,807.1875,1681,803.1875" style="stroke:#181818;stroke-width:1.0;"/><line style="stroke:#181818;stroke-width:1.0;" x1="41.5" x2="1683" y1="803.1875" y2="803.1875"/><text fill="#000000" font-family="sans-serif" font-size="13" lengthAdjust="spacing" textLength="188" x="48.5" y="798.4453">Read account activation email</text><polygon fill="#181818" points="1797.5,828.498,1807.5,832.498,1797.5,836.498,1801.5,832.498" style="stroke:#181818;stroke-width:1.0;"/><line style="stroke:#181818;stroke-width:1.0;" x1="41.5" x2="1803.5" y1="832.498" y2="832.498"/><text fill="#000000" font-family="sans-serif" font-size="13" lengthAdjust="spacing" textLength="136" x="48.5" y="827.7559">Activate user account</text><!--SRC=[XLJ1Rjim33rRNy7cr1wCejSS2dHDKEmGR6WoxAp8Z2V0jbIHIh9z_IZPIUEqII-9mFSeFZwHll51rwq6HlSFE4HKDnyYYYqt24_6kDYn_BFTQhQkWoM-HUmCmipgEkWMRaqC0OL4ka62JUDsTqffmox0v3aIknR313I1sIkl0rjZlHR-PEPCNDgwos15Ot2PRjkuO333j1d3T8HBakAsmsRWaHA14U5dR4Y75FDdLnlNKHHHPIJvmLRRXdg1qlc8oKuJbm69TGmIwMbX_nahNTRZ-NJM3NRLIx1Lhx4UWmUJO25Arcu_cDNASKnSfKA_SPq9l5FAxA5yV1Jlfl3iMjyW8wmMJqhLmKKFIzOrWevoU_zujnLowXPMtsPtggX8qiMoAIpS5k67zy1ko7fuK0LjUfmk4AGfo9KE1G_pej_dnGSC-4PA5JtbzMWcc81Q19-9AZedmM3hFvnAWqIArWM40qrpZj5VOcpBoXcwzurc6ORsVXr9He6eF4RU7w_iwqbkqfsgo35La1x3NXpivRmd21oImMBrvoZlilrU_9ctbazw6zYjI16lL77YrE33BncIImuCehBn4XgbN_VSzgRRphBL3UJPLiDz9qA_TrlBE4_eV9jsTn1whiJtUR8NQS3orbpCLONGakpCVi4EG-fDVno9GTL0fteAQJskCAdEz-QD-8fyua_UZcFQA-ehQURuqCEt3lCQ7nBKVm00]--></g></svg>